<svg xmlns="http://www.w3.org/2000/svg" xmlns:xlink="http://www.w3.org/1999/xlink" width="95" height="95.851" viewBox="0 0 95 95.851">
  <defs>
    <linearGradient id="linear-gradient" x1="-0.004" y1="0.5" x2="0.98" y2="0.5" gradientUnits="objectBoundingBox">
      <stop offset="0" stop-color="#fff"/>
      <stop offset="0" stop-color="#00a0f7"/>
      <stop offset="0.485" stop-color="#67b730"/>
      <stop offset="1" stop-color="#ef5a00"/>
    </linearGradient>
  </defs>
  <g id="그룹_278" data-name="그룹 278" transform="translate(-99.312 -97.905)">
    <g id="그룹_276" data-name="그룹 276" transform="translate(99.312 97.905)">
      <path id="패스_180" data-name="패스 180" d="M180.16,193.756a.187.187,0,0,1-.038-.022c-5.557-3.706-15.837-3.893-17.842-3.893H114.494c-5.289,0-9.251-1.326-11.775-3.94-2.421-2.507-3.561-6.262-3.389-11.159V113.266c0-10.623,4.738-15.361,15.361-15.361h61.017c10.487,0,15.163,4.677,15.163,15.163v46.784c-.023.7-.347,12.448,3.419,18.724a.3.3,0,0,1-.03.278c-.073.126-.156.126-.188.126h-.2l-1.772.393a13.458,13.458,0,0,1-11.129-5.433c-2.512-3.393-3.839-8.123-3.839-13.678V111.644H112.477v65.05H161.1a19.382,19.382,0,0,1,16.419,9.2c.289.458.541.85.772,1.209,1.661,2.581,1.965,3.054,2.118,6.355A.361.361,0,0,1,180.16,193.756Z" transform="translate(-99.312 -97.905)" fill="url(#linear-gradient)"/>
    </g>
    <g id="그룹_277" data-name="그룹 277" transform="translate(116.417 130.708)">
      <path id="패스_181" data-name="패스 181" d="M166.129,207.616a5.356,5.356,0,0,1,5.521,4.315.7.7,0,0,0,.693.571h.053a.708.708,0,0,0,.707-.708v-3.624a.707.707,0,0,1,.708-.707h2.763a.708.708,0,0,1,.708.707v12.5a.708.708,0,0,1-.708.708h-2.763a.708.708,0,0,1-.708-.708v-3.992a.707.707,0,0,0-.707-.707h0a.7.7,0,0,0-.7.594,5.351,5.351,0,0,1-5.569,4.537H163.7a5.33,5.33,0,0,1-5.653-5.346v-2.8a5.33,5.33,0,0,1,5.653-5.346Zm13.058,14.5V208.169a.707.707,0,0,1,.707-.707h2.794a.707.707,0,0,1,.707.707v22.367a.708.708,0,0,1-.707.707H165.147a.708.708,0,0,0-.708.707v.275a.708.708,0,0,0,.708.708h17.542a.707.707,0,0,1,.707.707v2.18a.708.708,0,0,1-.707.708H162.474a2.367,2.367,0,0,1-2.367-2.367v-5.467a.707.707,0,0,1,.708-.707h17.542a.707.707,0,0,0,.708-.707v-.213a.708.708,0,0,0-.708-.708H160.814a.707.707,0,0,1-.708-.707v-2.118a.708.708,0,0,1,.708-.708h17.665A.708.708,0,0,0,179.187,222.117ZM167.7,213.546a2.247,2.247,0,0,0-2.489-2.3h-.584a2.247,2.247,0,0,0-2.489,2.3V215.2a2.247,2.247,0,0,0,2.489,2.3h.584a2.247,2.247,0,0,0,2.489-2.3Z" transform="translate(-158.048 -207.462)" fill="#575756"/>
      <path id="패스_182" data-name="패스 182" d="M260.393,232.364V221.677a.817.817,0,0,1,.817-.817h2.852a.817.817,0,0,1,.817.817v10.687a.817.817,0,0,0,.817.817h4.2a.817.817,0,0,0,.814-.754l1.471-18.983a.817.817,0,0,0-.815-.88H255.249a.817.817,0,0,1-.817-.817v-2.484a.817.817,0,0,1,.817-.817h20.8a.817.817,0,0,1,.817.817v3.269c0,.021,0,.042,0,.063L275.332,232.3a.816.816,0,0,0,.814.88h2.019a.817.817,0,0,1,.817.817v2.391a.817.817,0,0,1-.817.817h-24.79a.817.817,0,0,1-.817-.817V234a.817.817,0,0,1,.817-.817h6.2A.817.817,0,0,0,260.393,232.364Z" transform="translate(-223.063 -208.14)" fill="#575756"/>
    </g>
  </g>
</svg>
