<?xml version="1.0" encoding="utf-8"?>
<!-- Generator: Adobe Illustrator 24.1.2, SVG Export Plug-In . SVG Version: 6.00 Build 0)  -->
<svg version="1.1" xmlns="http://www.w3.org/2000/svg" xmlns:xlink="http://www.w3.org/1999/xlink" x="0px" y="0px"
	 viewBox="0 0 180 53" style="enable-background:new 0 0 180 53;" xml:space="preserve">
<style type="text/css">
	.st0{fill:none;stroke:#000000;stroke-width:2;stroke-miterlimit:10;}
	.st1{stroke:#000000;stroke-width:2;stroke-miterlimit:10;}
	.st2{stroke:#FFFFFF;stroke-miterlimit:10;}
	.st3{fill:none;stroke:#000000;stroke-miterlimit:10;}
	.st4{fill:#FFFFFF;stroke:#000000;stroke-miterlimit:10;}
	.st5{fill:#040000;}
	.st6{fill:#333333;}
	.st7{fill:#0F4C81;}
	.st8{fill:#555555;}
	.st9{opacity:0.3;fill:#040000;enable-background:new    ;}
	.st10{fill:#EFEFEF;}
	.st11{fill:#EBEBEB;}
	.st12{fill:#FFFFFF;}
	.st13{fill:#089E08;}
	.st14{fill:#087F08;}
	.st15{fill:#021D34;}
	.st16{fill:#BCBCBC;}
	.st17{fill:#FFFFFF;stroke:#555555;stroke-width:0.32;stroke-miterlimit:10;}
	.st18{fill:#777777;}
	.st19{fill:#515151;}
	.st20{fill:#929292;}
	.st21{fill:#3C3D3D;}
	.st22{fill:url(#SVGID_1_);}
	.st23{fill:url(#SVGID_2_);}
	.st24{fill:url(#SVGID_3_);}
	.st25{fill:url(#SVGID_4_);}
	.st26{fill:#CBCBCB;}
	.st27{fill:url(#SVGID_5_);}
	.st28{fill:url(#SVGID_6_);}
	.st29{fill:url(#SVGID_7_);}
	.st30{fill:url(#SVGID_8_);}
</style>
<g id="레이어_2">
<!-- 
<image style="overflow:visible;" width="255" height="198" xlink:href="BAB9729D.jpg"  transform="matrix(0.2139 0 0 0.2139 247.3756 89.8347)">
	</image>
-->	 
</g>
<g id="레이어_1">
	<g>
		<path class="st0" d="M479.2-113.3c0,5.7-4.6,10.2-10.2,10.2s-10.2-4.6-10.2-10.2c0-5.6,4.6-10.2,10.2-10.2v-5.9
			c-8.8,0-16,7.2-16,16s7.2,16,16,16s16-7.2,16-16L479.2-113.3L479.2-113.3z"/>
		<path class="st1" d="M472-132.4v5.9c5.6,0,10.2,4.5,10.2,10.1h5.8C488-125.3,480.9-132.4,472-132.4z"/>
	</g>
	<g>
		<path class="st1" d="M475.1-72.4c0,4.9-3.9,8.8-8.6,8.8c-4.8,0-8.6-4-8.6-8.8s3.9-8.8,8.6-8.8v-5.1c-7.4,0-13.5,6.2-13.5,13.8
			s6,13.8,13.5,13.8S480-64.9,480-72.5L475.1-72.4C475.1-72.5,475.1-72.5,475.1-72.4z"/>
		<path class="st1" d="M471.5-90.7v5.1c4.7,0,8.5,3.9,8.6,8.7h4.9C485-84.5,479-90.7,471.5-90.7z"/>
	</g>
	<path class="st2" d="M395.3-128.2h-28.9c-0.9,0-1.6,0.7-1.6,1.6v18.6c0,0.9,0.7,1.6,1.6,1.6h9.6l-0.7,6.2h-1.4
		c-0.9,0-1.7,0.8-1.7,1.7v0.6c0,0.9,0.8,1.7,1.7,1.7h12.6c0.9,0,1.7-0.8,1.7-1.7v-0.6c0-0.9-0.8-1.7-1.7-1.7h-1.2l-0.7-6.2h10.6
		c0.9,0,1.6-0.7,1.6-1.6v-18.6C396.8-127.5,396.1-128.2,395.3-128.2z M393.5-109.5h-25.1v-15.6h25.1V-109.5z"/>
	<path class="st2" d="M387.7-85.3h-18c-0.6,0-1,0.4-1,1v11.6c0,0.5,0.4,1,1,1h6l-0.4,3.9h-0.9c-0.6,0-1.1,0.5-1.1,1.1v0.4
		c0,0.6,0.5,1.1,1.1,1.1h7.9c0.6,0,1.1-0.5,1.1-1.1v-0.4c0-0.6-0.5-1.1-1.1-1.1h-0.8l-0.4-3.9h6.6c0.6,0,1-0.4,1-1v-11.6
		C388.7-84.8,388.2-85.3,387.7-85.3z M386.6-73.6h-15.7v-9.7h15.7V-73.6z"/>
	<g>
		<rect x="443.7" y="-129.4" class="st2" width="0" height="1.1"/>
		<rect x="408.1" y="-126.1" class="st3" width="27.8" height="22.4"/>
		<rect x="406" y="-128.7" class="st4" width="5" height="5"/>
		<rect x="432.9" y="-128.7" class="st4" width="5" height="5"/>
		<rect x="406" y="-106.3" class="st4" width="5" height="5"/>
		<rect x="432.9" y="-106.3" class="st4" width="5" height="5"/>
		<polygon points="425.4,-117.4 425.4,-121.4 412.7,-121.4 412.7,-112.3 418.7,-112.3 418.7,-108.3 431.4,-108.3 431.4,-117.4 		"/>
	</g>
	<rect x="247.8" y="38.5" class="st2" width="0" height="0.6"/>
	<g>
		<polygon points="197.9,108 194.3,108 184.9,118 194.3,128 197.9,128 188.5,118 		"/>
		<polygon points="195.5,118 204.9,108 201.4,108 192,118 201.4,128 204.9,128 		"/>
	</g>
	<g>
		<path d="M429.1,70.9L429.1,70.9c-0.2,0.2-0.3,0.3-0.3,0.6v12.9c0,0.4-0.4,0.7-0.9,0.7h-24.7c-0.5,0-0.9-0.3-0.9-0.7V71.9
			c0-0.2-0.1-0.4-0.3-0.6l0,0c-0.6-0.4-1.5-0.1-1.5,0.6v14c0,0.4,0.4,0.7,0.9,0.7h28.3c0.5,0,0.9-0.3,0.9-0.7V71.5
			C430.6,70.9,429.7,70.5,429.1,70.9z"/>
		<path d="M429,62.7h-26.8c-0.9,0-1.6,0.6-1.6,1.4v1.1v1.4c0,0.4,0.2,0.8,0.5,1c0.4,0.3,0.8,0.6,1.2,0.9c2.9,2.2,4.3,3.3,9.7,7.3
			l2.2,1.6c0.5,0.4,1.4,0.4,1.9,0l12.7-9.4l1.2-0.9c0.4-0.3,0.5-0.6,0.5-1v-1.4v-0.8C430.6,63.3,429.9,62.7,429,62.7z M428.3,66.6
			l-12,8.9c-0.6,0.4-1.5,0.4-2.1,0c-3.5-2.7-7.8-5.9-11.3-8.5c-0.3-0.3-0.5-0.6-0.5-1v-0.3c0-0.8,0.7-1.4,1.6-1.4h23.3
			c0.9,0,1.6,0.6,1.6,1.4C428.8,66,428.6,66.3,428.3,66.6z"/>
	</g>
	<g>
		<rect x="329.3" y="-123.4" width="11.3" height="5"/>
		<rect x="329.3" y="-115.9" width="20" height="5"/>
		<rect x="335.4" y="-108.4" width="13.8" height="5"/>
	</g>
	<path class="st5" d="M463.2-0.4c0,0-0.3-0.1-1-0.2c-0.8-0.1-1,0.7-1,0.7l-1.4,13.3c-1,4.7-5.2,4-5.2,4c-4.6-0.5-4.3-5.3-4.3-5.3
		l1.8-16.2c0.6-2.8,3-2.4,3-2.4c2.6,0.6,2.4,3,2.4,3l-1.6,14.3c0,0-0.1,0.4-0.6,0.4s-0.5-0.7-0.5-0.7s1-9.8,1.1-10.8
		s-0.4-1.2-0.4-1.2s-0.1-0.2-1.1-0.3c-1-0.1-1,0.8-1,0.8l-1.1,11c0,0-1.3,4.1,2.5,4.6s3.8-3.5,3.8-3.5L460-3.1
		c0.3-6.2-4.5-6.1-4.5-6.1c-6.1-0.3-5.8,4.5-5.8,4.5l-1.8,16.2c0,0-1.9,7.3,6.3,8.5c8.1,1.2,8.2-6.3,8.2-6.3s1.3-12,1.4-13
		C463.7-0.1,463.2-0.4,463.2-0.4z"/>
	<g>
		<path class="st6" d="M231.3,20.6c0,1,0.8,1.9,1.9,1.9h17.5c1.2,0,2.2-1,2.2-2.2V0.2h-21.6V20.6L231.3,20.6z M247.1,4.6
			c0-0.4,0.3-0.8,0.7-0.8c0.4,0,0.7,0.3,0.7,0.8V18c0,0.4-0.3,0.8-0.7,0.8c-0.4,0-0.7-0.3-0.7-0.8V4.6z M241.6,4.6
			c0-0.4,0.3-0.8,0.7-0.8c0.4,0,0.7,0.3,0.7,0.8V18c0,0.4-0.3,0.8-0.7,0.8c-0.4,0-0.7-0.3-0.7-0.8V4.6z M236.1,4.6
			c0-0.4,0.3-0.8,0.7-0.8c0.4,0,0.7,0.3,0.7,0.8V18c0,0.4-0.3,0.8-0.7,0.8c-0.4,0-0.7-0.3-0.7-0.8V4.6z"/>
		<path class="st6" d="M252.4-5.1h-5.1c-0.1-1.4-1.1-2.4-2.5-2.4h-5.2c-1.4,0-2.5,1.1-2.6,2.4h-5.1c-0.4,0-0.7,0.3-0.7,0.8v1.5
			c0,0.4,0.3,0.8,0.7,0.8h20.5c0.4,0,0.7-0.3,0.7-0.8v-1.5C253.2-4.7,252.8-5.1,252.4-5.1z"/>
	</g>
	<path d="M247.4,65.8l-0.8-1.1c-0.2-0.3-0.6-0.3-0.8,0l-4.3,5.9l-2.3-3.2c-0.2-0.3-0.6-0.3-0.8,0l-0.8,1.1c-0.2,0.3-0.2,0.8,0,1.1
		l3.5,4.8c0.2,0.2,0.4,0.3,0.6,0.2c0.1,0,0.1-0.1,0.2-0.2l5.4-7.4C247.6,66.5,247.6,66.1,247.4,65.8z"/>
	<path class="st7" d="M284.1-5.6l0.1,31.3c0,1.5,1.9,2.3,2.9,1.2l16-15.3c1.2-1.2,1.2-3.1,0-4.3L286.9-8.1c-1.1-1-2.9-0.3-2.9,1.2
		L284.1-5.6z"/>
	<path class="st5" d="M385,67.5h-8.7l-4-3.9h-9.4c-2.2,0-4,1.7-4,3.8v3.9v2v8.6c0,2.1,1.8,3.8,4,3.8H385c2.2,0,4-1.7,4-3.8V71.3
		C388.9,69.2,387.2,67.5,385,67.5z M379.1,76.1c0,0.4-0.4,0.8-0.8,0.8h-3.4v3.2c0,0.4-0.4,0.8-0.8,0.8h-0.3c-0.4,0-0.8-0.3-0.8-0.8
		v-3.2h-3.4c-0.4,0-0.8-0.3-0.8-0.8v-0.3c0-0.4,0.4-0.8,0.8-0.8h3.4v-3.2c0-0.4,0.4-0.8,0.8-0.8h0.3c0.4,0,0.8,0.3,0.8,0.8V75h3.4
		c0.4,0,0.8,0.3,0.8,0.8V76.1z"/>
	<g>
		<path class="st8" d="M159.4,128.9v-15.8h3.6c0.5,0,0.7-0.7,0.4-1.1l-5-5.8c-0.4-0.4-1-0.4-1.4,0l-5,5.8c-0.3,0.4-0.1,1,0.4,1h0.4
			h3.4v15.7c0,0.6,0.6,1.1,1.3,1.1h0.4C158.8,130,159.4,129.5,159.4,128.9z"/>
		<path class="st8" d="M166.5,107.1v15.7h-3.6c-0.5,0-0.7,0.7-0.4,1.1l5,5.8c0.4,0.4,1,0.4,1.4,0l5-5.8c0.3-0.4,0.1-1-0.4-1h-0.4
			h-3.4v-15.8c0-0.6-0.6-1.1-1.3-1.1H168C167.1,106,166.5,106.4,166.5,107.1z"/>
	</g>
	<path class="st7" d="M-28-53L-28-53h-0.4h-1.4l0,0h-5.3l0,0h-3.7c-0.6,0-0.8,0.8-0.5,1.1l5.1,6.4c0.4,0.4,1,0.4,1.4,0l5.1-6.4
		C-27.2-52.3-27.5-53-28-53z"/>
	<g>
		<circle class="st9" cx="212.9" cy="-55.2" r="11"/>
		<path class="st10" d="M218.2-55.7l-7.4-4.5c-0.4-0.2-0.9,0-0.9,0.5v9c0,0.4,0.5,0.7,0.9,0.5l7.4-4.5
			C218.6-54.9,218.6-55.5,218.2-55.7z"/>
	</g>
	<path class="st10" d="M387.2,28.8l-5.6-5.6c1.8-1.9,2.9-4.4,2.9-7.2c0-5.8-4.7-10.5-10.5-10.5s-10.5,4.7-10.5,10.5
		s4.7,10.5,10.5,10.5c2.7,0,5.1-1,6.9-2.6l5.6,5.6L387.2,28.8z M364.5,16c0-5.2,4.3-9.5,9.5-9.5s9.5,4.3,9.5,9.5s-4.3,9.5-9.5,9.5
		C368.7,25.5,364.5,21.2,364.5,16z"/>
	<path class="st10" d="M352.6,16.8l-5.6-5.6c1.8-1.9,2.8-4.4,2.8-7.2c0-5.8-4.7-10.5-10.5-10.5S328.8-1.8,328.8,4
		s4.7,10.5,10.5,10.5c2.7,0,5.1-1,6.9-2.6l5.6,5.6L352.6,16.8z M329.8,4c0-5.2,4.3-9.5,9.5-9.5c5.2,0,9.5,4.3,9.5,9.5
		s-4.3,9.5-9.5,9.5C334.1,13.5,329.8,9.3,329.8,4z"/>
	<path class="st10" d="M378.7-1.6l-4.3-4.2c1.4-1.6,2.3-3.6,2.3-5.9c0-4.9-4-8.9-9-8.9s-9,4-9,8.9s4,8.9,9,8.9c2.1,0,4.1-0.7,5.7-2
		l4.3,4.3L378.7-1.6z M367.7-4.2c-4.2,0-7.6-3.4-7.6-7.5s3.4-7.5,7.6-7.5s7.6,3.4,7.6,7.5S371.9-4.2,367.7-4.2z"/>
	<path class="st11" d="M312.3-50.7l-11.8-11.9l11.8-11.8c0.7-0.7,0.7-1.9,0-2.6c-0.7-0.7-1.9-0.7-2.6,0l-11.8,11.8L286-77
		c-0.7-0.7-1.9-0.7-2.6,0c-0.7,0.7-0.7,1.9,0,2.6l11.8,11.8l-11.8,11.9c-0.7,0.7-0.7,1.9,0,2.6c0.7,0.7,1.9,0.7,2.6,0l11.9-11.8
		l11.9,11.8c0.7,0.7,1.9,0.7,2.6,0C313.1-48.8,313.1-50,312.3-50.7z"/>
	<g>
		<path class="st12" d="M213.4-112.2h-10c-2.8,0-5-2.2-5-5v-10c0-2.8,2.2-5,5-5h10c2.8,0,5,2.2,5,5v10
			C218.4-114.4,216.1-112.2,213.4-112.2z"/>
		<path class="st11" d="M212.4-113.2h-8c-2.8,0-5-2.2-5-5v-8c0-2.8,2.2-5,5-5h8c2.8,0,5,2.2,5,5v8
			C217.4-115.4,215.1-113.2,212.4-113.2z"/>
		<path class="st12" d="M215.1-125.9l-1-1.3c-0.3-0.4-0.8-0.4-1.1,0l-6,7l-3.3-3.8c-0.3-0.4-0.8-0.4-1.1,0l-1.1,1.3
			c-0.3,0.4-0.3,0.9,0,1.3l4.9,5.7c0.2,0.3,0.6,0.3,0.8,0.2c0.1,0,0.2-0.1,0.3-0.2l7.6-8.9C215.4-125,215.4-125.5,215.1-125.9z"/>
	</g>
	<g>
		<path class="st12" d="M246.6-112.2h-10c-2.8,0-5-2.2-5-5v-10c0-2.8,2.2-5,5-5h10c2.8,0,5,2.2,5,5v10
			C251.6-114.4,249.4-112.2,246.6-112.2z"/>
		<path class="st13" d="M241.1-113.2c-0.3,0.1-0.7,0.1-1-0.2l-5.4-5.8c-0.4-0.3-0.3-2.8,0-3.1l0.8,0.6c0.4-0.4,0.9-0.4,1.3,0
			l3.9,3.8l7.2-7.1c0.4-0.4,0.3-1,0.6-0.6l2,1.9c0,0,0.1,0.1,0.1,0.3v-2.8c0-2.8-2.2-5-5-5h-8c-2.8,0-5,2.2-5,5v8c0,2.8,2.2,5,5,5h8
			c0.1,0,0.2,0,0.3,0C244.6-113.2,241.2-113.3,241.1-113.2z"/>
		<path class="st14" d="M250.6-118.2v-5.2c0-0.1-0.1-0.3-0.1-0.3l-2-1.9c-0.4-0.4-0.3,0.3-0.6,0.6l-7.2,7.1l-3.9-3.8
			c-0.4-0.4-0.9-0.4-1.3,0l-0.8-0.6c-0.4,0.4-0.4,2.8,0,3.1l5.4,5.8c0.3,0.3,0.7,0.3,1,0.2c0.1,0,3.6,0.1,4.8,0
			C248.5-113.3,250.6-115.5,250.6-118.2z"/>
		<path class="st12" d="M248.4-125.8l-1.1-1.3c-0.3-0.4-0.8-0.4-1.1,0l-6,7l-3.3-3.8c-0.3-0.4-0.8-0.4-1.1,0l-1.1,1.3
			c-0.3,0.4-0.3,0.9,0,1.3l4.9,5.7c0.2,0.3,0.6,0.3,0.8,0.2c0.1,0,0.2-0.1,0.3-0.2l7.6-8.9C248.7-124.9,248.7-125.5,248.4-125.8z"/>
	</g>
	<rect x="-95" y="60.2" class="st7" width="32.7" height="32.7"/>
	<g>
		<path class="st12" d="M279.7-112.2h-10c-2.8,0-5-2.2-5-5v-10c0-2.8,2.2-5,5-5h10c2.8,0,5,2.2,5,5v10
			C284.7-114.4,282.5-112.2,279.7-112.2z"/>
		<path class="st7" d="M274.1-113.3c-0.3,0.1-0.7,0.1-1-0.2l-5.4-5.8c-0.4-0.3-0.3-2.8,0-3.1l0.9,0.6c0.4-0.4,0.9-0.4,1.3,0l3.9,3.8
			l7.2-7.1c0.4-0.4,0.3-1,0.6-0.6l2,1.9c0,0,0.1,0.1,0.1,0.3v-2.8c0-2.8-2.2-5-5-5h-8c-2.8,0-5,2.2-5,5v8c0,2.8,2.2,5,5,5h8
			c0.1,0,0.2,0,0.3,0C277.7-113.2,274.2-113.3,274.1-113.3z"/>
		<path class="st15" d="M283.7-118.2v-5.2c0-0.1-0.1-0.3-0.1-0.3l-2-1.9c-0.4-0.4-0.3,0.3-0.6,0.6l-7.2,7.1l-3.9-3.8
			c-0.4-0.4-0.9-0.4-1.3,0l-0.8-0.6c-0.4,0.4-0.4,2.8,0,3.1l5.4,5.8c0.3,0.3,0.7,0.3,1,0.2c0.1,0,3.6,0.1,4.8,0
			C281.6-113.4,283.7-115.5,283.7-118.2z"/>
		<path class="st12" d="M281.5-125.9l-1.1-1.3c-0.3-0.4-0.8-0.4-1.1,0l-6,7L270-124c-0.3-0.4-0.8-0.4-1.1,0l-1.1,1.3
			c-0.3,0.4-0.3,0.9,0,1.3l4.9,5.7c0.2,0.3,0.6,0.3,0.8,0.2c0.1,0,0.2-0.1,0.3-0.2l7.6-8.9C281.8-125,281.8-125.5,281.5-125.9z"/>
	</g>
	<path class="st11" d="M2,136.5c0.5-0.1,1-0.6,1.1-1.1s-0.3-0.9-0.9-0.9l-4,0.5l1-4.2c0.1-0.5-0.2-1-0.7-1s-1.1,0.4-1.2,0.9
		l-1.1,4.5l-4.4,0.5l1.3-5.3c0.1-0.5-0.2-1-0.7-1s-1.1,0.4-1.2,0.9l-1.4,5.7l-5.3,0.7c-0.5,0.1-1,0.6-1.1,1.1s0.3,0.9,0.9,0.9
		l4.9-0.6l-0.9,3.7l-4.3,0.4c-0.5,0.1-1,0.6-1.1,1.1s0.3,0.9,0.9,0.9l4-0.5l-1,4.2c-0.1,0.5,0.2,1,0.7,1s1.1-0.4,1.2-0.9l1.1-4.5
		l4.4-0.5l-1.3,5.4c-0.1,0.5,0.2,1,0.7,1s1.1-0.4,1.2-0.9l1.4-5.7l5.2-0.6c0.5-0.1,1-0.6,1.1-1.1l0,0c0.1-0.5-0.3-0.9-0.9-0.9
		l-4.9,0.6l0.9-3.7L2,136.5z M-5.2,140.9l-4.4,0.5l0.9-3.7l4.4-0.5L-5.2,140.9z"/>
	<path class="st16" d="M113.9,242.9L100,231.8l13.9-11.2c0.2-0.2,0.2-0.6,0-0.8l0,0c-0.2-0.2-0.7-0.2-0.9,0l-14.5,11.5l0,0l-0.5,0.3
		l0.5,0.3l0,0l0,0l0,0l14.4,11.5c0.3,0.2,0.8,0.2,1,0C114.1,243.5,114.1,243.1,113.9,242.9z"/>
	<g>
		<circle class="st17" cx="-164" cy="-49.1" r="25"/>
		<polygon class="st18" points="-153,-49.8 -163.3,-49.8 -163.3,-60.1 -164.7,-60.1 -164.7,-49.8 -175,-49.8 -175,-48.4 
			-164.7,-48.4 -164.7,-38.1 -163.3,-38.1 -163.3,-48.4 -153,-48.4 		"/>
	</g>
	<g>
		<path class="st6" d="M332.3-10.8l-0.7,6.6c0,0-0.1,0.8,0.4,1.2s1.1,0.4,1.1,0.4l6.6-0.7l16.4-16.4l-7.5-7.5L332.3-10.8z"/>
		<path class="st6" d="M360.7-28.2l-3.5-3.6c0,0-0.7-1-2.3-0.7c-1.5,0.2-1.7,0.8-1.7,0.8l-3.3,3.2l7.5,7.6l3.3-3.4
			c0,0,0.9-0.6,0.8-2.1C361.5-27.8,360.7-28.2,360.7-28.2z"/>
	</g>
	<g id="레이어_2_1_">
		<g>
			<polygon class="st4" points="119.6,-167.8 119.6,-170.6 117,-170.6 117,-169.1 105.4,-169.1 105.4,-170.6 102.8,-170.6 
				102.8,-167.8 103.9,-167.8 103.9,-158.6 102.8,-158.6 102.8,-155.8 105.4,-155.8 105.4,-157.2 117,-157.2 117,-155.8 
				119.6,-155.8 119.6,-158.6 118.6,-158.6 118.6,-167.8 			"/>
			<polygon points="113,-164.5 113,-166.6 106.3,-166.6 106.3,-161.8 109.5,-161.8 109.5,-159.6 116.2,-159.6 116.2,-164.5 			"/>
		</g>
	</g>
	<path class="st16" d="M193.9,242.9L180,231.8l13.9-11.2c0.2-0.2,0.2-0.6,0-0.8l0,0c-0.2-0.2-0.7-0.2-0.9,0l-14.5,11.5l0,0l-0.5,0.3
		l0.5,0.3l0,0l0,0l0,0l14.4,11.5c0.3,0.2,0.8,0.2,1,0C194.1,243.5,194.1,243.1,193.9,242.9z"/>
	<path class="st16" d="M149,236.3l-14.9-12l14.9-12c0.4-0.3,1.1-0.3,1.4,0.2l0,0c0.3,0.4,0.3,1.1-0.2,1.4l-12.9,10.4l12.9,10.4
		c0.4,0.3,0.5,1,0.1,1.4v0C150.1,236.6,149.4,236.6,149,236.3z"/>
	<g>
		<g>
			<path class="st16" d="M336.2,121.9c-2.7,0-5.1,1.4-6.4,3.6l2.5,2.5c0.6-1.6,2.2-2.7,4-2.7c1.7,0,3.2,1.1,3.9,2.6l2.4-2.5
				C341.2,123.3,338.9,121.9,336.2,121.9z"/>
			<path class="st16" d="M336.2,115.2c-4.7,0-8.8,2.4-10.6,6l2.5,2.6c0.9-2.9,4.2-5.1,8.1-5.1c3.9,0,7.2,2.2,8.1,5.1l2.5-2.6
				C345,117.7,340.9,115.2,336.2,115.2z"/>
			<path class="st16" d="M336.2,108.5c-6.8,0-12.7,3.4-15,8.2l2.5,2.6c1.3-4.2,6.4-7.4,12.5-7.4c6.1,0,11.2,3.1,12.5,7.4l2.5-2.6
				C348.8,111.9,343,108.5,336.2,108.5z"/>
			<path class="st16" d="M336.3,128.7c-0.9,0-1.7,0.7-1.8,1.6c0,0.1,0,0.2,0,0.3c0,0,0,0.1,0,0.1c0,0.5,0.2,0.9,0.5,1.2
				c0.3,0.3,0.8,0.6,1.3,0.6c0.5,0,1-0.2,1.4-0.6c0.3-0.3,0.5-0.7,0.5-1.2c0,0,0-0.1,0-0.1c0-0.2,0-0.4-0.1-0.5
				C337.9,129.3,337.1,128.7,336.3,128.7z"/>
		</g>
		<g>
			<path class="st7" d="M336.2,121.9c-2.7,0-5.1,1.4-6.4,3.6l2.5,2.5c0.6-1.6,2.2-2.7,4-2.7c1.7,0,3.2,1.1,3.9,2.6l2.4-2.5
				C341.2,123.3,338.9,121.9,336.2,121.9z"/>
			<path class="st7" d="M336.2,115.2c-4.7,0-8.8,2.4-10.6,6l2.5,2.6c0.9-2.9,4.2-5.1,8.1-5.1c3.9,0,7.2,2.2,8.1,5.1l2.5-2.6
				C345,117.7,340.9,115.2,336.2,115.2z"/>
			<path class="st7" d="M336.3,128.7c-0.9,0-1.7,0.7-1.8,1.6c0,0.1,0,0.2,0,0.3c0,0,0,0.1,0,0.1c0,0.5,0.2,0.9,0.5,1.2
				c0.3,0.3,0.8,0.6,1.3,0.6c0.5,0,1-0.2,1.4-0.6c0.3-0.3,0.5-0.7,0.5-1.2c0,0,0-0.1,0-0.1c0-0.2,0-0.4-0.1-0.5
				C337.9,129.3,337.1,128.7,336.3,128.7z"/>
		</g>
	</g>
	<path class="st7" d="M350.5,127.2h-0.6c0-0.1,0-0.3,0-0.4c0-1.7-1.3-3.1-2.8-3.1s-2.8,1.4-2.8,3.1c0,0.1,0,0.3,0,0.4h-0.6
		c-0.4,0-0.7,0.3-0.7,0.7v5c0,0.4,0.3,0.7,0.7,0.7h6.7c0.4,0,0.7-0.3,0.7-0.7v-5C351.2,127.5,350.9,127.2,350.5,127.2z M347.2,124.6
		c1.1,0,2,1,2,2.2c0,0.2,0,0.3,0,0.4h-3.9c0-0.1,0-0.3,0-0.4C345.2,125.5,346.1,124.6,347.2,124.6z M350.5,132.6
		c0,0.3-0.2,0.5-0.5,0.5h-5.7c-0.3,0-0.5-0.2-0.5-0.5v-4.3c0-0.3,0.2-0.5,0.5-0.5h5.7c0.3,0,0.5,0.2,0.5,0.5V132.6z"/>
	<path class="st7" d="M58-112.4h-0.6c0-0.1,0-0.3,0-0.4c0-1.7-1.3-3.1-2.8-3.1s-2.8,1.4-2.8,3.1c0,0.1,0,0.3,0,0.4h-0.6
		c-0.4,0-0.7,0.3-0.7,0.7v5c0,0.4,0.3,0.7,0.7,0.7H58c0.4,0,0.7-0.3,0.7-0.7v-5C58.6-112,58.3-112.4,58-112.4z M54.6-115
		c1.1,0,2,1,2,2.2c0,0.2,0,0.3,0,0.4h-3.9c0-0.1,0-0.3,0-0.4C52.6-114,53.5-115,54.6-115z M58-107c0,0.3-0.2,0.5-0.5,0.5h-5.7
		c-0.3,0-0.5-0.2-0.5-0.5v-4.3c0-0.3,0.2-0.5,0.5-0.5h5.7c0.3,0,0.5,0.2,0.5,0.5V-107z"/>
	<g>
		<ellipse class="st7" cx="0.5" cy="-73.9" rx="1.3" ry="1.4"/>
		<path class="st7" d="M-4.4-76.6l-1.1-0.5c-0.2-0.1-0.3-0.4-0.2-0.6c0.6-1,2.4-3.4,6.3-3.4c3.9,0,5.6,2.5,6.1,3.5
			c0.1,0.2,0,0.5-0.2,0.6l-1.2,0.5c-0.2,0.1-0.4,0-0.5-0.2C4.5-77.5,3.3-79,0.6-79c-2.8,0-4.1,1.6-4.5,2.3
			C-4-76.6-4.2-76.5-4.4-76.6z"/>
		<path class="st7" d="M9.6-81.2c-0.2,0.1-0.5,0.1-0.6-0.2c-0.8-1.3-3.6-5.4-8.5-5.4c-4.9,0-8.1,3.8-9,5c-0.2,0.2-0.5,0.3-0.7,0.1
			l-0.9-0.6c-0.2-0.2-0.3-0.5-0.1-0.8C-9.1-84.6-5.4-89,0.5-89c6,0,9.3,4.9,10.3,6.5c0.2,0.3,0.1,0.6-0.2,0.8L9.6-81.2z"/>
		<path class="st16" d="M-13.4-86.4l-0.8-0.5c-0.3-0.2-0.4-0.6-0.2-0.9c1.2-2,6.1-8.8,15-8.8c8.9,0,13.6,6.8,14.8,8.8
			c0.2,0.3,0.1,0.7-0.2,0.8l-0.8,0.5c-0.3,0.2-0.6,0.1-0.7-0.2c-1.1-1.8-5.2-7.7-13-7.7c-7.9,0-12.2,6-13.3,7.7
			C-12.8-86.3-13.2-86.3-13.4-86.4z"/>
	</g>
	<g>
		<ellipse class="st7" cx="17.9" cy="-107.1" rx="1.3" ry="1.4"/>
		<path class="st7" d="M13-109.8l-1.1-0.5c-0.2-0.1-0.3-0.4-0.2-0.6c0.6-1,2.4-3.4,6.3-3.4c3.9,0,5.6,2.5,6.1,3.5
			c0.1,0.2,0,0.5-0.2,0.6l-1.2,0.5c-0.2,0.1-0.4,0-0.5-0.2c-0.4-0.7-1.5-2.2-4.2-2.2c-2.8,0-4.1,1.6-4.5,2.3
			C13.4-109.7,13.2-109.7,13-109.8z"/>
		<path class="st16" d="M27-114.4c-0.2,0.1-0.5,0.1-0.6-0.2c-0.8-1.3-3.6-5.4-8.5-5.4c-4.9,0-8.1,3.8-9,5c-0.2,0.2-0.5,0.3-0.7,0.1
			l-0.9-0.6c-0.2-0.2-0.3-0.5-0.1-0.8c1.1-1.5,4.8-5.9,10.7-5.9c6,0,9.3,4.9,10.3,6.5c0.2,0.3,0.1,0.6-0.2,0.8L27-114.4z"/>
		<path class="st16" d="M4-119.6l-0.8-0.5c-0.3-0.2-0.4-0.6-0.2-0.9c1.2-2,6.1-8.8,15-8.8c8.9,0,13.6,6.8,14.8,8.8
			c0.2,0.3,0.1,0.7-0.2,0.8l-0.8,0.5c-0.3,0.2-0.6,0.1-0.7-0.2c-1.1-1.8-5.2-7.7-13-7.7c-7.9,0-12.2,6-13.3,7.7
			C4.5-119.5,4.2-119.4,4-119.6z"/>
	</g>
	<g>
		<ellipse class="st7" cx="-23.2" cy="-105.3" rx="1.3" ry="1.4"/>
		<path class="st7" d="M-28-108l-1.1-0.5c-0.2-0.1-0.3-0.4-0.2-0.6c0.6-1,2.4-3.4,6.3-3.4c3.9,0,5.6,2.5,6.1,3.5
			c0.1,0.2,0,0.5-0.2,0.6l-1.2,0.5c-0.2,0.1-0.4,0-0.5-0.2c-0.4-0.7-1.5-2.2-4.2-2.2c-2.8,0-4.1,1.6-4.5,2.3
			C-27.6-108-27.9-107.9-28-108z"/>
		<path class="st7" d="M-14-112.6c-0.2,0.1-0.5,0.1-0.6-0.2c-0.8-1.3-3.6-5.4-8.5-5.4c-4.9,0-8.1,3.8-9,5c-0.2,0.2-0.5,0.3-0.7,0.1
			l-0.9-0.6c-0.2-0.2-0.3-0.5-0.1-0.8c1.1-1.5,4.8-5.9,10.7-5.9c6,0,9.3,4.9,10.3,6.5c0.2,0.3,0.1,0.6-0.2,0.8L-14-112.6z"/>
		<path class="st7" d="M-37.1-117.8l-0.8-0.5c-0.3-0.2-0.4-0.6-0.2-0.9c1.2-2,6.1-8.8,15-8.8c8.9,0,13.6,6.8,14.8,8.8
			c0.2,0.3,0.1,0.7-0.2,0.8l-0.8,0.5c-0.3,0.2-0.6,0.1-0.7-0.2c-1.1-1.8-5.2-7.7-13-7.7c-7.9,0-12.2,6-13.3,7.7
			C-36.5-117.7-36.8-117.6-37.1-117.8z"/>
	</g>
	<g>
		<ellipse class="st7" cx="21.8" cy="-131.1" rx="1.3" ry="1.4"/>
		<path class="st16" d="M16.9-133.8l-1.1-0.5c-0.2-0.1-0.3-0.4-0.2-0.6c0.6-1,2.4-3.4,6.3-3.4c3.9,0,5.6,2.5,6.1,3.5
			c0.1,0.2,0,0.5-0.2,0.6l-1.2,0.5c-0.2,0.1-0.4,0-0.5-0.2c-0.4-0.7-1.5-2.2-4.2-2.2c-2.8,0-4.1,1.6-4.5,2.3
			C17.3-133.7,17.1-133.7,16.9-133.8z"/>
		<path class="st16" d="M30.9-138.4c-0.2,0.1-0.5,0.1-0.6-0.2c-0.8-1.3-3.6-5.4-8.5-5.4c-4.9,0-8.1,3.8-9,5
			c-0.2,0.2-0.5,0.3-0.7,0.1l-0.9-0.6c-0.2-0.2-0.3-0.5-0.1-0.8c1.1-1.5,4.8-5.9,10.7-5.9c6,0,9.3,4.9,10.3,6.5
			c0.2,0.3,0.1,0.6-0.2,0.8L30.9-138.4z"/>
		<path class="st16" d="M7.9-143.6L7-144.1c-0.3-0.2-0.4-0.6-0.2-0.9c1.2-2,6.1-8.8,15-8.8c8.9,0,13.6,6.8,14.8,8.8
			c0.2,0.3,0.1,0.7-0.2,0.8l-0.8,0.5c-0.3,0.2-0.6,0.1-0.7-0.2c-1.1-1.8-5.2-7.7-13-7.7c-7.9,0-12.2,6-13.3,7.7
			C8.4-143.5,8.1-143.4,7.9-143.6z"/>
	</g>
	<g>
		<g>
			<path class="st19" d="M-187.2,78.8v6.3h8.5v0.9h-9.5V71.3h9.2v0.9h-8.2V78h7.9v0.9H-187.2z"/>
			<path class="st19" d="M-175.6,71.3v13.9h7.7v0.9h-8.7V71.3H-175.6z"/>
			<path class="st19" d="M-165.8,78.7c0-1.3,0.1-2.5,0.3-3.5c0.2-0.9,0.5-1.7,0.9-2.4c0.4-0.6,0.9-1,1.6-1.3
				c0.7-0.3,1.5-0.4,2.5-0.4c0.8,0,1.5,0.1,2.1,0.4c0.6,0.3,1,0.6,1.4,1c0.4,0.4,0.6,0.9,0.9,1.5c0.2,0.6,0.3,1.2,0.4,1.8h-1
				c-0.1-1.2-0.5-2.2-1.1-2.8c-0.6-0.6-1.5-1-2.7-1c-0.8,0-1.4,0.1-2,0.3c-0.6,0.2-1,0.6-1.3,1.1c-0.3,0.5-0.6,1.2-0.7,2.1
				c-0.2,0.9-0.2,1.9-0.2,3.2c0,1.3,0.1,2.4,0.2,3.2c0.1,0.9,0.4,1.5,0.7,2.1c0.3,0.5,0.8,0.9,1.3,1.1c0.5,0.2,1.2,0.3,2,0.3
				c1.2,0,2.2-0.3,2.9-1c0.7-0.7,1-1.7,1-3.2v-2.3h-3.9V78h4.9v2.8c0,1-0.1,1.8-0.3,2.4c-0.2,0.7-0.6,1.2-1,1.7
				c-0.4,0.4-0.9,0.8-1.5,1c-0.6,0.2-1.3,0.3-2,0.3c-1,0-1.8-0.2-2.5-0.4c-0.7-0.3-1.2-0.7-1.6-1.3c-0.4-0.6-0.7-1.4-0.9-2.4
				C-165.7,81.2-165.8,80-165.8,78.7z"/>
			<path class="st19" d="M-143,81.4c0,0.9-0.1,1.7-0.4,2.3c-0.3,0.6-0.6,1.1-1.1,1.5c-0.5,0.4-1,0.7-1.6,0.8
				c-0.6,0.2-1.3,0.3-1.9,0.3c-0.7,0-1.3-0.1-1.9-0.3c-0.6-0.2-1.1-0.5-1.6-0.8c-0.5-0.4-0.8-0.9-1.1-1.5c-0.3-0.6-0.4-1.4-0.4-2.2
				V76c0-0.9,0.1-1.6,0.4-2.2c0.3-0.6,0.6-1.1,1.1-1.5c0.5-0.4,1-0.7,1.6-0.8c0.6-0.2,1.2-0.3,1.9-0.3c0.7,0,1.3,0.1,1.9,0.3
				c0.6,0.2,1.1,0.5,1.6,0.8c0.5,0.4,0.8,0.9,1.1,1.5c0.3,0.6,0.4,1.4,0.4,2.3V81.4z M-152,81.4c0,0.8,0.1,1.5,0.4,2
				c0.2,0.5,0.6,0.9,0.9,1.2c0.4,0.3,0.8,0.5,1.3,0.6c0.5,0.1,0.9,0.1,1.4,0.1c0.5,0,0.9-0.1,1.4-0.1c0.5-0.1,0.9-0.3,1.3-0.6
				c0.4-0.3,0.7-0.7,0.9-1.2c0.2-0.5,0.3-1.2,0.3-2V76c0-0.8-0.1-1.5-0.3-2c-0.2-0.5-0.6-0.9-0.9-1.2c-0.4-0.3-0.8-0.5-1.3-0.6
				c-0.5-0.1-1-0.1-1.4-0.1c-0.5,0-1,0.1-1.4,0.1c-0.5,0.1-0.9,0.3-1.3,0.6c-0.4,0.3-0.7,0.7-0.9,1.2c-0.2,0.5-0.4,1.2-0.4,2V81.4z"
				/>
		</g>
		<g>
			<path class="st20" d="M-263.1,91.2h0.8v7.2h-0.8V91.2z M-262.6,97.7h4.3v0.7h-4.3V97.7z"/>
			<path class="st20" d="M-255.9,91.2h0.8v7.2h-0.8V91.2z M-255.4,91.2h4.4v0.7h-4.4V91.2z M-255.4,94.5h3.8v0.7h-3.8V94.5z
				 M-255.4,97.7h4.4v0.7h-4.4V97.7z"/>
			<path class="st20" d="M-248.5,91.2h0.8v7.2h-0.8V91.2z M-247.8,97.7h1.7c0.7,0,1.2-0.2,1.6-0.5c0.3-0.3,0.5-0.8,0.5-1.4v-2.1
				c0-0.6-0.2-1.1-0.5-1.4c-0.3-0.3-0.9-0.5-1.6-0.5h-1.7v-0.7h1.7c0.6,0,1.2,0.1,1.6,0.3c0.4,0.2,0.7,0.5,1,0.9
				c0.2,0.4,0.3,0.9,0.3,1.4v2c0,0.6-0.1,1-0.3,1.4c-0.2,0.4-0.5,0.7-1,0.9c-0.4,0.2-1,0.3-1.6,0.3h-1.7V97.7z"/>
			<path class="st20" d="M-235.5,91.2h0.9l2.8,7.2h-0.8L-235,92l-2.4,6.4h-0.8L-235.5,91.2z M-237,96h4v0.7h-4V96z"/>
			<path class="st20" d="M-229.5,91.2h0.8v7.2h-0.8V91.2z M-228.8,97.7h1.7c0.7,0,1.2-0.2,1.6-0.5c0.3-0.3,0.5-0.8,0.5-1.4v-2.1
				c0-0.6-0.2-1.1-0.5-1.4c-0.3-0.3-0.9-0.5-1.6-0.5h-1.7v-0.7h1.7c0.6,0,1.2,0.1,1.6,0.3c0.4,0.2,0.7,0.5,1,0.9
				c0.2,0.4,0.3,0.9,0.3,1.4v2c0,0.6-0.1,1-0.3,1.4c-0.2,0.4-0.5,0.7-1,0.9c-0.4,0.2-1,0.3-1.6,0.3h-1.7V97.7z"/>
			<path class="st20" d="M-222.4,91.2h0.8l2.2,6.2l2.2-6.2h0.8l-2.6,7.2h-0.7L-222.4,91.2z"/>
			<path class="st20" d="M-214.2,91.2h0.8v7.2h-0.8V91.2z M-213.7,91.2h4.4v0.7h-4.4V91.2z M-213.7,94.5h3.8v0.7h-3.8V94.5z
				 M-213.7,97.7h4.4v0.7h-4.4V97.7z"/>
			<path class="st20" d="M-206.8,91.2h0.8v7.2h-0.8V91.2z M-206.3,94.7h2.6c0.3,0,0.5-0.1,0.7-0.2c0.2-0.1,0.4-0.3,0.5-0.5
				c0.1-0.2,0.2-0.5,0.2-0.7c0-0.3-0.1-0.5-0.2-0.7c-0.1-0.2-0.3-0.4-0.5-0.5c-0.2-0.1-0.5-0.2-0.7-0.2h-2.6v-0.7h2.5
				c0.4,0,0.8,0.1,1.2,0.3c0.3,0.2,0.6,0.4,0.8,0.7c0.2,0.3,0.3,0.7,0.3,1.1c0,0.4-0.1,0.8-0.3,1.1c-0.2,0.3-0.4,0.6-0.8,0.7
				c-0.3,0.2-0.7,0.3-1.2,0.3h-2.5V94.7z M-203.9,95.1l0.7-0.2l1.9,3.5h-0.9L-203.9,95.1z"/>
			<path class="st20" d="M-199.8,91.2h5.3v0.7h-5.3V91.2z M-197.5,91.5h0.8v6.9h-0.8V91.5z"/>
			<path class="st20" d="M-191.7,98.4h-0.8v-7.2h0.8V98.4z"/>
			<path class="st20" d="M-186.8,98.5c0,0-0.2,0-0.5-0.1c-0.3-0.1-0.6-0.2-0.9-0.3c-0.3-0.1-0.5-0.3-0.8-0.5l0.5-0.6
				c0.3,0.3,0.7,0.5,1,0.6c0.4,0.1,0.8,0.2,1.2,0.2c0.6,0,1.2-0.1,1.5-0.4c0.4-0.2,0.5-0.6,0.5-1v0c0-0.3-0.1-0.5-0.2-0.7
				c-0.2-0.2-0.4-0.3-0.6-0.4c-0.2-0.1-0.6-0.2-0.9-0.2c0,0,0,0,0,0c0,0,0,0,0,0l-0.2,0c-0.5-0.1-1-0.2-1.3-0.3
				c-0.3-0.1-0.6-0.3-0.8-0.5c-0.2-0.2-0.3-0.6-0.3-1v0c0-0.4,0.1-0.8,0.3-1.1c0.2-0.3,0.5-0.6,0.9-0.7c0.4-0.2,0.9-0.2,1.5-0.2
				c0.3,0,0.5,0,0.8,0.1c0.3,0.1,0.5,0.1,0.8,0.2c0.3,0.1,0.5,0.2,0.8,0.4l-0.4,0.6c-0.3-0.2-0.6-0.4-1-0.5
				c-0.3-0.1-0.6-0.2-0.9-0.2c-0.6,0-1.1,0.1-1.4,0.4c-0.3,0.2-0.5,0.6-0.5,1v0c0,0.3,0.1,0.5,0.3,0.6c0.2,0.2,0.4,0.3,0.6,0.3
				c0.3,0.1,0.6,0.2,1,0.2c0,0,0,0,0,0c0,0,0,0,0,0c0,0,0,0,0.1,0c0,0,0,0,0.1,0c0.5,0.1,0.9,0.2,1.2,0.3c0.3,0.1,0.6,0.3,0.8,0.6
				c0.2,0.3,0.3,0.6,0.3,1v0c0,0.4-0.1,0.8-0.3,1.1c-0.2,0.3-0.5,0.5-1,0.7c-0.4,0.2-0.9,0.2-1.5,0.2
				C-186.6,98.5-186.8,98.5-186.8,98.5z"/>
			<path class="st20" d="M-180.9,91.2h0.8v7.2h-0.8V91.2z M-180.4,91.2h4.4v0.7h-4.4V91.2z M-180.4,94.5h3.8v0.7h-3.8V94.5z
				 M-180.4,97.7h4.4v0.7h-4.4V97.7z"/>
			<path class="st20" d="M-167.8,91.2h0.8v7.2h-0.8v-6.2l0.1,0.3l-2.3,4.8h-0.5l-2.3-4.7l0.1-0.4v6.2h-0.8v-7.2h0.8l2.4,5.2
				L-167.8,91.2z"/>
			<path class="st20" d="M-164.1,91.2h0.8v7.2h-0.8V91.2z M-163.6,91.2h4.4v0.7h-4.4V91.2z M-163.6,94.5h3.8v0.7h-3.8V94.5z
				 M-163.6,97.7h4.4v0.7h-4.4V97.7z"/>
			<path class="st20" d="M-156.6,91.2h0.8l4.4,6.5l-0.3-0.2v-6.3h0.8v7.2h-0.8l-4.5-6.5l0.4,0.3v6.2h-0.8V91.2z"/>
			<path class="st20" d="M-149.1,91.2h5.3v0.7h-5.3V91.2z M-146.8,91.5h0.8v6.9h-0.8V91.5z"/>
		</g>
		<g>
			<path class="st21" d="M-257,58.5h0.6v6.8h-1c-4.8,0-7.7-2.7-7.7-9.4s2.9-9.4,7.7-9.4h1v6.8h-0.6c-1.3,0-2,0.8-2,2.7
				C-259,57.7-258.3,58.5-257,58.5z M-230.2,87H-264V74.5h24.6v-1.7H-264v-5.5h33.2v12.2h-24.6v1.7h25.2V87z M-254.3,53.2h-0.6v-6.8
				h1c3.8,0,6.4,1.7,7.3,5.7h2v-5.7h6.1V65h-6.1v-5.4h-2c-0.9,4-3.5,5.7-7.3,5.7h-1v-6.8h0.6c1.3,0,2-0.8,2-2.6
				C-252.3,54-253,53.2-254.3,53.2z M-237,46.5h6.2V65h-6.2V46.5z"/>
			<path class="st21" d="M-227.8,77.6h10.3V63.5h9v14.1h15.8v8.3h-35.1V77.6z M-202.5,55.8h-23.2v-8.5h31.3V55
				c0,7.5-0.7,14.5-2.1,19.8l-7.8-2.1c1.1-4.2,1.8-11,1.8-16.6V55.8z"/>
		</g>
		<linearGradient id="SVGID_1_" gradientUnits="userSpaceOnUse" x1="-330.6888" y1="72.6178" x2="-284.5149" y2="72.6178">
			<stop  offset="0" style="stop-color:#FFFFFF"/>
			<stop  offset="0" style="stop-color:#2D91C0"/>
			<stop  offset="8.083963e-02" style="stop-color:#2F92BC"/>
			<stop  offset="0.1686" style="stop-color:#3595AF"/>
			<stop  offset="0.2597" style="stop-color:#3F9999"/>
			<stop  offset="0.3531" style="stop-color:#4D9F7A"/>
			<stop  offset="0.4473" style="stop-color:#5EA754"/>
			<stop  offset="0.4747" style="stop-color:#64AA47"/>
			<stop  offset="1" style="stop-color:#D44241"/>
		</linearGradient>
		<path class="st22" d="M-276.1,90.6c0.8,0,1.4-0.9,0.9-1.6c-1.8-3-1.7-9.1-1.7-9.1l0-24c0-5.9-2.8-8.7-8.7-8.7l0,0c0,0,0,0,0,0
			l-31.3,0c-6,0-8.8,2.8-8.8,8.8l0,31.5c-0.2,5.8,3,8.7,8.7,8.7l24.1,0l0.5,0c1.5,0,6.2,0.2,8.7,1.8c0.7,0.5,1.7-0.1,1.6-1
			c-0.1-2.2-0.4-2.5-1.6-4.4c-1.9-3.2-5.5-5.2-9.2-5.2l-24,0l0-31.6l31.4,0l0,24c0,5.9,2.8,10.7,8.7,10.7L-276.1,90.6z"/>
		<linearGradient id="SVGID_2_" gradientUnits="userSpaceOnUse" x1="-320.6014" y1="71.4843" x2="-289.5579" y2="72.006">
			<stop  offset="0" style="stop-color:#FFFFFF"/>
			<stop  offset="0" style="stop-color:#2D91C0"/>
			<stop  offset="8.083963e-02" style="stop-color:#2F92BC"/>
			<stop  offset="0.1686" style="stop-color:#3595AF"/>
			<stop  offset="0.2597" style="stop-color:#3F9999"/>
			<stop  offset="0.3531" style="stop-color:#4D9F7A"/>
			<stop  offset="0.4473" style="stop-color:#5EA754"/>
			<stop  offset="0.4747" style="stop-color:#64AA47"/>
			<stop  offset="1" style="stop-color:#D44241"/>
		</linearGradient>
		<rect x="-314.3" y="59.4" class="st23" width="7.5" height="24.5"/>
		<linearGradient id="SVGID_3_" gradientUnits="userSpaceOnUse" x1="-320.5989" y1="71.3338" x2="-289.5554" y2="71.8555">
			<stop  offset="0" style="stop-color:#FFFFFF"/>
			<stop  offset="0" style="stop-color:#2D91C0"/>
			<stop  offset="8.083963e-02" style="stop-color:#2F92BC"/>
			<stop  offset="0.1686" style="stop-color:#3595AF"/>
			<stop  offset="0.2597" style="stop-color:#3F9999"/>
			<stop  offset="0.3531" style="stop-color:#4D9F7A"/>
			<stop  offset="0.4473" style="stop-color:#5EA754"/>
			<stop  offset="0.4747" style="stop-color:#64AA47"/>
			<stop  offset="1" style="stop-color:#D44241"/>
		</linearGradient>
		<rect x="-305.3" y="59.4" class="st24" width="7.2" height="24.5"/>
		<linearGradient id="SVGID_4_" gradientUnits="userSpaceOnUse" x1="-320.5962" y1="71.1742" x2="-289.5527" y2="71.696">
			<stop  offset="0" style="stop-color:#FFFFFF"/>
			<stop  offset="0" style="stop-color:#2D91C0"/>
			<stop  offset="8.083963e-02" style="stop-color:#2F92BC"/>
			<stop  offset="0.1686" style="stop-color:#3595AF"/>
			<stop  offset="0.2597" style="stop-color:#3F9999"/>
			<stop  offset="0.3531" style="stop-color:#4D9F7A"/>
			<stop  offset="0.4473" style="stop-color:#5EA754"/>
			<stop  offset="0.4747" style="stop-color:#64AA47"/>
			<stop  offset="1" style="stop-color:#D44241"/>
		</linearGradient>
		<rect x="-296.2" y="59.4" class="st25" width="8.1" height="24.5"/>
	</g>
	<g>
		<g>
			<path class="st11" d="M136.5,32.8V39h8.4v0.9h-9.4V25.3h9.1v0.9h-8.1v5.7h7.8v0.9H136.5z"/>
			<path class="st11" d="M147.9,25.3V39h7.5v0.9h-8.5V25.3H147.9z"/>
			<path class="st11" d="M157.6,32.6c0-1.3,0.1-2.5,0.3-3.4c0.2-0.9,0.5-1.7,0.9-2.3c0.4-0.6,0.9-1,1.6-1.3c0.7-0.3,1.5-0.4,2.4-0.4
				c0.8,0,1.5,0.1,2.1,0.4c0.6,0.3,1,0.6,1.4,1c0.4,0.4,0.6,0.9,0.8,1.5c0.2,0.6,0.3,1.1,0.4,1.7h-1c-0.1-1.2-0.5-2.1-1.1-2.8
				c-0.6-0.6-1.5-1-2.7-1c-0.8,0-1.4,0.1-1.9,0.3c-0.5,0.2-1,0.6-1.3,1.1c-0.3,0.5-0.6,1.2-0.7,2c-0.2,0.9-0.2,1.9-0.2,3.2
				c0,1.3,0.1,2.3,0.2,3.1c0.1,0.9,0.4,1.5,0.7,2c0.3,0.5,0.8,0.9,1.3,1.1c0.5,0.2,1.2,0.3,1.9,0.3c1.2,0,2.1-0.3,2.8-1
				c0.7-0.7,1-1.7,1-3.1v-2.2h-3.9V32h4.8v2.8c0,0.9-0.1,1.8-0.3,2.4c-0.2,0.7-0.5,1.2-1,1.7c-0.4,0.4-0.9,0.8-1.5,1
				c-0.6,0.2-1.2,0.3-1.9,0.3c-1,0-1.8-0.2-2.5-0.4c-0.7-0.3-1.2-0.7-1.6-1.3c-0.4-0.6-0.7-1.4-0.9-2.3
				C157.7,35.1,157.6,34,157.6,32.6z"/>
			<path class="st11" d="M180,35.3c0,0.9-0.1,1.6-0.4,2.2c-0.3,0.6-0.6,1.1-1.1,1.5c-0.5,0.4-1,0.7-1.6,0.8
				c-0.6,0.2-1.2,0.3-1.9,0.3c-0.7,0-1.3-0.1-1.9-0.3c-0.6-0.2-1.1-0.4-1.6-0.8c-0.5-0.4-0.8-0.9-1.1-1.5c-0.3-0.6-0.4-1.3-0.4-2.2
				v-5.4c0-0.9,0.1-1.6,0.4-2.2c0.3-0.6,0.6-1.1,1.1-1.5c0.4-0.4,1-0.7,1.6-0.8c0.6-0.2,1.2-0.3,1.9-0.3c0.7,0,1.3,0.1,1.9,0.3
				c0.6,0.2,1.1,0.4,1.6,0.8c0.4,0.4,0.8,0.9,1.1,1.5c0.3,0.6,0.4,1.4,0.4,2.2V35.3z M171.1,35.3c0,0.8,0.1,1.5,0.4,2
				c0.2,0.5,0.5,0.9,0.9,1.2c0.4,0.3,0.8,0.5,1.3,0.6c0.5,0.1,0.9,0.1,1.4,0.1c0.4,0,0.9-0.1,1.4-0.1c0.5-0.1,0.9-0.3,1.3-0.6
				c0.4-0.3,0.7-0.7,0.9-1.2c0.2-0.5,0.3-1.2,0.3-2v-5.4c0-0.8-0.1-1.5-0.3-2c-0.2-0.5-0.5-0.9-0.9-1.2c-0.4-0.3-0.8-0.5-1.3-0.6
				c-0.5-0.1-0.9-0.1-1.4-0.1c-0.5,0-0.9,0.1-1.4,0.1c-0.5,0.1-0.9,0.3-1.3,0.6c-0.4,0.3-0.7,0.7-0.9,1.2c-0.2,0.5-0.4,1.2-0.4,2
				V35.3z"/>
		</g>
		<g>
			<path class="st26" d="M61.6,45h0.7v7.1h-0.7V45z M62.2,51.4h4.3v0.7h-4.3V51.4z"/>
			<path class="st26" d="M68.7,45h0.7v7.1h-0.7V45z M69.2,45h4.3v0.7h-4.3V45z M69.2,48.2h3.7v0.7h-3.7V48.2z M69.2,51.4h4.3v0.7
				h-4.3V51.4z"/>
			<path class="st26" d="M76.1,45h0.7v7.1h-0.7V45z M76.8,51.4h1.7c0.7,0,1.2-0.2,1.6-0.5c0.3-0.3,0.5-0.8,0.5-1.4v-2.1
				c0-0.6-0.2-1.1-0.5-1.4c-0.3-0.3-0.9-0.5-1.6-0.5h-1.7V45h1.7c0.6,0,1.2,0.1,1.6,0.3c0.4,0.2,0.7,0.5,0.9,0.8
				c0.2,0.4,0.3,0.8,0.3,1.4v2c0,0.6-0.1,1-0.3,1.4c-0.2,0.4-0.5,0.7-0.9,0.8c-0.4,0.2-0.9,0.3-1.6,0.3h-1.7V51.4z"/>
			<path class="st26" d="M88.9,45h0.9l2.8,7.1h-0.8l-2.4-6.3L87,52.1h-0.8L88.9,45z M87.4,49.7h3.9v0.7h-3.9V49.7z"/>
			<path class="st26" d="M94.7,45h0.7v7.1h-0.7V45z M95.4,51.4h1.7c0.7,0,1.2-0.2,1.6-0.5c0.3-0.3,0.5-0.8,0.5-1.4v-2.1
				c0-0.6-0.2-1.1-0.5-1.4c-0.3-0.3-0.9-0.5-1.6-0.5h-1.7V45h1.7c0.6,0,1.2,0.1,1.6,0.3c0.4,0.2,0.7,0.5,0.9,0.8
				c0.2,0.4,0.3,0.8,0.3,1.4v2c0,0.6-0.1,1-0.3,1.4c-0.2,0.4-0.5,0.7-0.9,0.8c-0.4,0.2-0.9,0.3-1.6,0.3h-1.7V51.4z"/>
			<path class="st26" d="M101.8,45h0.8l2.2,6.1l2.2-6.1h0.8l-2.6,7.1h-0.7L101.8,45z"/>
			<path class="st26" d="M109.8,45h0.7v7.1h-0.7V45z M110.3,45h4.3v0.7h-4.3V45z M110.3,48.2h3.7v0.7h-3.7V48.2z M110.3,51.4h4.3
				v0.7h-4.3V51.4z"/>
			<path class="st26" d="M117.1,45h0.7v7.1h-0.7V45z M117.6,48.4h2.5c0.3,0,0.5-0.1,0.7-0.2c0.2-0.1,0.4-0.3,0.5-0.5
				c0.1-0.2,0.2-0.5,0.2-0.7c0-0.3-0.1-0.5-0.2-0.7c-0.1-0.2-0.3-0.4-0.5-0.5c-0.2-0.1-0.5-0.2-0.7-0.2h-2.5V45h2.5
				c0.4,0,0.8,0.1,1.1,0.3c0.3,0.2,0.6,0.4,0.8,0.7c0.2,0.3,0.3,0.7,0.3,1.1c0,0.4-0.1,0.8-0.3,1.1c-0.2,0.3-0.4,0.5-0.8,0.7
				c-0.3,0.2-0.7,0.3-1.1,0.3h-2.5V48.4z M120,48.8l0.7-0.2l1.9,3.4h-0.9L120,48.8z"/>
			<path class="st26" d="M124,45h5.3v0.7H124V45z M126.3,45.3h0.7v6.8h-0.7V45.3z"/>
			<path class="st26" d="M132.1,52.1h-0.7V45h0.7V52.1z"/>
			<path class="st26" d="M136.8,52.1c0,0-0.2,0-0.5-0.1c-0.3-0.1-0.6-0.2-0.9-0.3c-0.3-0.1-0.5-0.3-0.8-0.5l0.4-0.6
				c0.3,0.3,0.7,0.5,1,0.6c0.4,0.1,0.8,0.2,1.2,0.2c0.6,0,1.1-0.1,1.5-0.4c0.4-0.2,0.5-0.6,0.5-1v0c0-0.3-0.1-0.5-0.2-0.6
				c-0.2-0.2-0.3-0.3-0.6-0.4c-0.2-0.1-0.6-0.2-0.9-0.2c0,0,0,0,0,0c0,0,0,0,0,0l-0.1,0c-0.5-0.1-0.9-0.2-1.3-0.3
				c-0.3-0.1-0.6-0.3-0.8-0.5c-0.2-0.2-0.3-0.6-0.3-1v0c0-0.4,0.1-0.8,0.3-1.1c0.2-0.3,0.5-0.5,0.9-0.7c0.4-0.2,0.9-0.2,1.4-0.2
				c0.3,0,0.5,0,0.8,0.1c0.3,0.1,0.5,0.1,0.8,0.2c0.3,0.1,0.5,0.2,0.7,0.4l-0.4,0.5c-0.3-0.2-0.6-0.4-0.9-0.5
				c-0.3-0.1-0.6-0.2-0.9-0.2c-0.6,0-1.1,0.1-1.4,0.4c-0.3,0.2-0.5,0.6-0.5,1v0c0,0.3,0.1,0.5,0.3,0.6c0.2,0.2,0.4,0.3,0.6,0.3
				c0.2,0.1,0.6,0.2,1,0.2c0,0,0,0,0,0s0,0,0,0c0,0,0,0,0.1,0c0,0,0,0,0.1,0c0.5,0.1,0.9,0.2,1.2,0.3c0.3,0.1,0.6,0.3,0.8,0.5
				c0.2,0.2,0.3,0.6,0.3,1v0c0,0.4-0.1,0.8-0.3,1.1c-0.2,0.3-0.5,0.5-0.9,0.7c-0.4,0.2-0.9,0.2-1.5,0.2
				C137,52.1,136.8,52.1,136.8,52.1z"/>
			<path class="st26" d="M142.6,45h0.7v7.1h-0.7V45z M143.1,45h4.3v0.7h-4.3V45z M143.1,48.2h3.7v0.7h-3.7V48.2z M143.1,51.4h4.3
				v0.7h-4.3V51.4z"/>
			<path class="st26" d="M155.5,45h0.8v7.1h-0.7V46l0.1,0.3l-2.2,4.8h-0.5l-2.3-4.7l0.1-0.4v6.1H150V45h0.8l2.4,5.1L155.5,45z"/>
			<path class="st26" d="M159.2,45h0.7v7.1h-0.7V45z M159.7,45h4.3v0.7h-4.3V45z M159.7,48.2h3.7v0.7h-3.7V48.2z M159.7,51.4h4.3
				v0.7h-4.3V51.4z"/>
			<path class="st26" d="M166.6,45h0.7l4.3,6.4l-0.3-0.2V45h0.7V52h-0.8l-4.4-6.4l0.4,0.3V52h-0.7V45z"/>
			<path class="st26" d="M174,45h5.3v0.7H174V45z M176.2,45.3h0.7v6.8h-0.7V45.3z"/>
		</g>
		<g>
			<path class="st11" d="M67.7,12.7h0.6v6.7h-1c-4.7,0-7.6-2.7-7.6-9.2s2.9-9.3,7.6-9.3h1v6.7h-0.6c-1.3,0-1.9,0.8-1.9,2.6
				S66.4,12.7,67.7,12.7z M94.1,40.8H60.8V28.5h24.3v-1.7H60.8v-5.5h32.7v12.1H69.3v1.7h24.8V40.8z M70.3,7.5h-0.6V0.9h1
				c3.7,0,6.3,1.7,7.2,5.6h1.9V0.9h6v18.3h-6v-5.4h-2c-0.9,3.9-3.5,5.6-7.2,5.6h-1v-6.7h0.6c1.3,0,1.9-0.8,1.9-2.6
				S71.6,7.5,70.3,7.5z M87.4,0.9h6.1v18.3h-6.1V0.9z"/>
			<path class="st11" d="M96.4,31.6h10.1V17.7h8.8v13.9H131v8.2H96.4V31.6z M121.4,10.1H98.5V1.7h30.8v7.5c0,7.4-0.7,14.3-2,19.5
				l-7.7-2.1c1.1-4.1,1.8-10.8,1.8-16.3V10.1z"/>
		</g>
		<linearGradient id="SVGID_5_" gradientUnits="userSpaceOnUse" x1="-4.9549" y1="26.6591" x2="40.5482" y2="26.6591">
			<stop  offset="0" style="stop-color:#FFFFFF"/>
			<stop  offset="0" style="stop-color:#2D91C0"/>
			<stop  offset="8.083963e-02" style="stop-color:#2F92BC"/>
			<stop  offset="0.1686" style="stop-color:#3595AF"/>
			<stop  offset="0.2597" style="stop-color:#3F9999"/>
			<stop  offset="0.3531" style="stop-color:#4D9F7A"/>
			<stop  offset="0.4473" style="stop-color:#5EA754"/>
			<stop  offset="0.4747" style="stop-color:#64AA47"/>
			<stop  offset="1" style="stop-color:#D44241"/>
		</linearGradient>
		<path class="st27" d="M48.9,44.4c0.8,0,1.3-0.9,0.9-1.6c-1.8-3-1.6-9-1.6-9l0-23.7c0-5.8-2.8-8.6-8.6-8.6l0,0c0,0,0,0,0,0l-30.9,0
			C2.8,1.5,0,4.3,0,10.2l0,31.1c-0.2,5.7,2.9,8.6,8.6,8.6l23.7,0l0.5,0c1.5,0,6.1,0.2,8.5,1.8c0.7,0.5,1.6-0.1,1.6-0.9
			c-0.1-2.2-0.4-2.4-1.6-4.3c-1.9-3.1-5.4-5.1-9.1-5.1l-23.7,0l0-31.1l30.9,0l0,23.7c0,5.8,2.8,10.6,8.6,10.6L48.9,44.4z"/>
		<linearGradient id="SVGID_6_" gradientUnits="userSpaceOnUse" x1="4.9859" y1="25.5421" x2="35.5784" y2="26.0562">
			<stop  offset="0" style="stop-color:#FFFFFF"/>
			<stop  offset="0" style="stop-color:#2D91C0"/>
			<stop  offset="8.083963e-02" style="stop-color:#2F92BC"/>
			<stop  offset="0.1686" style="stop-color:#3595AF"/>
			<stop  offset="0.2597" style="stop-color:#3F9999"/>
			<stop  offset="0.3531" style="stop-color:#4D9F7A"/>
			<stop  offset="0.4473" style="stop-color:#5EA754"/>
			<stop  offset="0.4747" style="stop-color:#64AA47"/>
			<stop  offset="1" style="stop-color:#D44241"/>
		</linearGradient>
		<rect x="11.1" y="13.6" class="st28" width="7.3" height="24.1"/>
		<linearGradient id="SVGID_7_" gradientUnits="userSpaceOnUse" x1="4.9884" y1="25.3938" x2="35.5809" y2="25.9079">
			<stop  offset="0" style="stop-color:#FFFFFF"/>
			<stop  offset="0" style="stop-color:#2D91C0"/>
			<stop  offset="8.083963e-02" style="stop-color:#2F92BC"/>
			<stop  offset="0.1686" style="stop-color:#3595AF"/>
			<stop  offset="0.2597" style="stop-color:#3F9999"/>
			<stop  offset="0.3531" style="stop-color:#4D9F7A"/>
			<stop  offset="0.4473" style="stop-color:#5EA754"/>
			<stop  offset="0.4747" style="stop-color:#64AA47"/>
			<stop  offset="1" style="stop-color:#D44241"/>
		</linearGradient>
		<rect x="20.1" y="13.6" class="st29" width="7.1" height="24.1"/>
		<linearGradient id="SVGID_8_" gradientUnits="userSpaceOnUse" x1="4.9911" y1="25.2366" x2="35.5835" y2="25.7507">
			<stop  offset="0" style="stop-color:#FFFFFF"/>
			<stop  offset="0" style="stop-color:#2D91C0"/>
			<stop  offset="8.083963e-02" style="stop-color:#2F92BC"/>
			<stop  offset="0.1686" style="stop-color:#3595AF"/>
			<stop  offset="0.2597" style="stop-color:#3F9999"/>
			<stop  offset="0.3531" style="stop-color:#4D9F7A"/>
			<stop  offset="0.4473" style="stop-color:#5EA754"/>
			<stop  offset="0.4747" style="stop-color:#64AA47"/>
			<stop  offset="1" style="stop-color:#D44241"/>
		</linearGradient>
		<rect x="29" y="13.6" class="st30" width="8" height="24.1"/>
	</g>
</g>
</svg>
