<svg version="1.1" baseProfile="tiny" xmlns="http://www.w3.org/2000/svg" width="250" height="250" ><rect xmlns="http://www.w3.org/2000/svg" shape-rendering="optimizeSpeed" width="250" height="250" fill="#fff" x="0" y="0"/><rect shape-rendering="optimizeSpeed" fill="#000" x="10" y="10"  width="9.299999999999999" height="9.299999999999999"></rect><rect shape-rendering="optimizeSpeed" fill="#000" x="19.2" y="10"  width="9.299999999999999" height="9.299999999999999"></rect><rect shape-rendering="optimizeSpeed" fill="#000" x="28.4" y="10"  width="9.299999999999999" height="9.299999999999999"></rect><rect shape-rendering="optimizeSpeed" fill="#000" x="37.599999999999994" y="10"  width="9.299999999999999" height="9.299999999999999"></rect><rect shape-rendering="optimizeSpeed" fill="#000" x="46.8" y="10"  width="9.299999999999999" height="9.299999999999999"></rect><rect shape-rendering="optimizeSpeed" fill="#000" x="56" y="10"  width="9.299999999999999" height="9.299999999999999"></rect><rect shape-rendering="optimizeSpeed" fill="#000" x="65.19999999999999" y="10"  width="9.299999999999999" height="9.299999999999999"></rect><rect shape-rendering="optimizeSpeed" fill="#000" x="83.6" y="10"  width="9.299999999999999" height="9.299999999999999"></rect><rect shape-rendering="optimizeSpeed" fill="#000" x="92.8" y="10"  width="9.299999999999999" height="9.299999999999999"></rect><rect shape-rendering="optimizeSpeed" fill="#000" x="129.6" y="10"  width="9.299999999999999" height="9.299999999999999"></rect><rect shape-rendering="optimizeSpeed" fill="#000" x="138.79999999999998" y="10"  width="9.299999999999999" height="9.299999999999999"></rect><rect shape-rendering="optimizeSpeed" fill="#000" x="175.6" y="10"  width="9.299999999999999" height="9.299999999999999"></rect><rect shape-rendering="optimizeSpeed" fill="#000" x="184.79999999999998" y="10"  width="9.299999999999999" height="9.299999999999999"></rect><rect shape-rendering="optimizeSpeed" fill="#000" x="194" y="10"  width="9.299999999999999" height="9.299999999999999"></rect><rect shape-rendering="optimizeSpeed" fill="#000" x="203.2" y="10"  width="9.299999999999999" height="9.299999999999999"></rect><rect shape-rendering="optimizeSpeed" fill="#000" x="212.39999999999998" y="10"  width="9.299999999999999" height="9.299999999999999"></rect><rect shape-rendering="optimizeSpeed" fill="#000" x="221.6" y="10"  width="9.299999999999999" height="9.299999999999999"></rect><rect shape-rendering="optimizeSpeed" fill="#000" x="230.79999999999998" y="10"  width="9.299999999999999" height="9.299999999999999"></rect><rect shape-rendering="optimizeSpeed" fill="#000" x="10" y="19.2"  width="9.299999999999999" height="9.299999999999999"></rect><rect shape-rendering="optimizeSpeed" fill="#000" x="65.19999999999999" y="19.2"  width="9.299999999999999" height="9.299999999999999"></rect><rect shape-rendering="optimizeSpeed" fill="#000" x="129.6" y="19.2"  width="9.299999999999999" height="9.299999999999999"></rect><rect shape-rendering="optimizeSpeed" fill="#000" x="138.79999999999998" y="19.2"  width="9.299999999999999" height="9.299999999999999"></rect><rect shape-rendering="optimizeSpeed" fill="#000" x="175.6" y="19.2"  width="9.299999999999999" height="9.299999999999999"></rect><rect shape-rendering="optimizeSpeed" fill="#000" x="230.79999999999998" y="19.2"  width="9.299999999999999" height="9.299999999999999"></rect><rect shape-rendering="optimizeSpeed" fill="#000" x="10" y="28.4"  width="9.299999999999999" height="9.299999999999999"></rect><rect shape-rendering="optimizeSpeed" fill="#000" x="28.4" y="28.4"  width="9.299999999999999" height="9.299999999999999"></rect><rect shape-rendering="optimizeSpeed" fill="#000" x="37.599999999999994" y="28.4"  width="9.299999999999999" height="9.299999999999999"></rect><rect shape-rendering="optimizeSpeed" fill="#000" x="46.8" y="28.4"  width="9.299999999999999" height="9.299999999999999"></rect><rect shape-rendering="optimizeSpeed" fill="#000" x="65.19999999999999" y="28.4"  width="9.299999999999999" height="9.299999999999999"></rect><rect shape-rendering="optimizeSpeed" fill="#000" x="83.6" y="28.4"  width="9.299999999999999" height="9.299999999999999"></rect><rect shape-rendering="optimizeSpeed" fill="#000" x="111.19999999999999" y="28.4"  width="9.299999999999999" height="9.299999999999999"></rect><rect shape-rendering="optimizeSpeed" fill="#000" x="120.39999999999999" y="28.4"  width="9.299999999999999" height="9.299999999999999"></rect><rect shape-rendering="optimizeSpeed" fill="#000" x="129.6" y="28.4"  width="9.299999999999999" height="9.299999999999999"></rect><rect shape-rendering="optimizeSpeed" fill="#000" x="175.6" y="28.4"  width="9.299999999999999" height="9.299999999999999"></rect><rect shape-rendering="optimizeSpeed" fill="#000" x="194" y="28.4"  width="9.299999999999999" height="9.299999999999999"></rect><rect shape-rendering="optimizeSpeed" fill="#000" x="203.2" y="28.4"  width="9.299999999999999" height="9.299999999999999"></rect><rect shape-rendering="optimizeSpeed" fill="#000" x="212.39999999999998" y="28.4"  width="9.299999999999999" height="9.299999999999999"></rect><rect shape-rendering="optimizeSpeed" fill="#000" x="230.79999999999998" y="28.4"  width="9.299999999999999" height="9.299999999999999"></rect><rect shape-rendering="optimizeSpeed" fill="#000" x="10" y="37.599999999999994"  width="9.299999999999999" height="9.299999999999999"></rect><rect shape-rendering="optimizeSpeed" fill="#000" x="28.4" y="37.599999999999994"  width="9.299999999999999" height="9.299999999999999"></rect><rect shape-rendering="optimizeSpeed" fill="#000" x="37.599999999999994" y="37.599999999999994"  width="9.299999999999999" height="9.299999999999999"></rect><rect shape-rendering="optimizeSpeed" fill="#000" x="46.8" y="37.599999999999994"  width="9.299999999999999" height="9.299999999999999"></rect><rect shape-rendering="optimizeSpeed" fill="#000" x="65.19999999999999" y="37.599999999999994"  width="9.299999999999999" height="9.299999999999999"></rect><rect shape-rendering="optimizeSpeed" fill="#000" x="83.6" y="37.599999999999994"  width="9.299999999999999" height="9.299999999999999"></rect><rect shape-rendering="optimizeSpeed" fill="#000" x="92.8" y="37.599999999999994"  width="9.299999999999999" height="9.299999999999999"></rect><rect shape-rendering="optimizeSpeed" fill="#000" x="111.19999999999999" y="37.599999999999994"  width="9.299999999999999" height="9.299999999999999"></rect><rect shape-rendering="optimizeSpeed" fill="#000" x="129.6" y="37.599999999999994"  width="9.299999999999999" height="9.299999999999999"></rect><rect shape-rendering="optimizeSpeed" fill="#000" x="175.6" y="37.599999999999994"  width="9.299999999999999" height="9.299999999999999"></rect><rect shape-rendering="optimizeSpeed" fill="#000" x="194" y="37.599999999999994"  width="9.299999999999999" height="9.299999999999999"></rect><rect shape-rendering="optimizeSpeed" fill="#000" x="203.2" y="37.599999999999994"  width="9.299999999999999" height="9.299999999999999"></rect><rect shape-rendering="optimizeSpeed" fill="#000" x="212.39999999999998" y="37.599999999999994"  width="9.299999999999999" height="9.299999999999999"></rect><rect shape-rendering="optimizeSpeed" fill="#000" x="230.79999999999998" y="37.599999999999994"  width="9.299999999999999" height="9.299999999999999"></rect><rect shape-rendering="optimizeSpeed" fill="#000" x="10" y="46.8"  width="9.299999999999999" height="9.299999999999999"></rect><rect shape-rendering="optimizeSpeed" fill="#000" x="28.4" y="46.8"  width="9.299999999999999" height="9.299999999999999"></rect><rect shape-rendering="optimizeSpeed" fill="#000" x="37.599999999999994" y="46.8"  width="9.299999999999999" height="9.299999999999999"></rect><rect shape-rendering="optimizeSpeed" fill="#000" x="46.8" y="46.8"  width="9.299999999999999" height="9.299999999999999"></rect><rect shape-rendering="optimizeSpeed" fill="#000" x="65.19999999999999" y="46.8"  width="9.299999999999999" height="9.299999999999999"></rect><rect shape-rendering="optimizeSpeed" fill="#000" x="83.6" y="46.8"  width="9.299999999999999" height="9.299999999999999"></rect><rect shape-rendering="optimizeSpeed" fill="#000" x="92.8" y="46.8"  width="9.299999999999999" height="9.299999999999999"></rect><rect shape-rendering="optimizeSpeed" fill="#000" x="102" y="46.8"  width="9.299999999999999" height="9.299999999999999"></rect><rect shape-rendering="optimizeSpeed" fill="#000" x="111.19999999999999" y="46.8"  width="9.299999999999999" height="9.299999999999999"></rect><rect shape-rendering="optimizeSpeed" fill="#000" x="148" y="46.8"  width="9.299999999999999" height="9.299999999999999"></rect><rect shape-rendering="optimizeSpeed" fill="#000" x="157.2" y="46.8"  width="9.299999999999999" height="9.299999999999999"></rect><rect shape-rendering="optimizeSpeed" fill="#000" x="175.6" y="46.8"  width="9.299999999999999" height="9.299999999999999"></rect><rect shape-rendering="optimizeSpeed" fill="#000" x="194" y="46.8"  width="9.299999999999999" height="9.299999999999999"></rect><rect shape-rendering="optimizeSpeed" fill="#000" x="203.2" y="46.8"  width="9.299999999999999" height="9.299999999999999"></rect><rect shape-rendering="optimizeSpeed" fill="#000" x="212.39999999999998" y="46.8"  width="9.299999999999999" height="9.299999999999999"></rect><rect shape-rendering="optimizeSpeed" fill="#000" x="230.79999999999998" y="46.8"  width="9.299999999999999" height="9.299999999999999"></rect><rect shape-rendering="optimizeSpeed" fill="#000" x="10" y="56"  width="9.299999999999999" height="9.299999999999999"></rect><rect shape-rendering="optimizeSpeed" fill="#000" x="65.19999999999999" y="56"  width="9.299999999999999" height="9.299999999999999"></rect><rect shape-rendering="optimizeSpeed" fill="#000" x="92.8" y="56"  width="9.299999999999999" height="9.299999999999999"></rect><rect shape-rendering="optimizeSpeed" fill="#000" x="120.39999999999999" y="56"  width="9.299999999999999" height="9.299999999999999"></rect><rect shape-rendering="optimizeSpeed" fill="#000" x="175.6" y="56"  width="9.299999999999999" height="9.299999999999999"></rect><rect shape-rendering="optimizeSpeed" fill="#000" x="230.79999999999998" y="56"  width="9.299999999999999" height="9.299999999999999"></rect><rect shape-rendering="optimizeSpeed" fill="#000" x="10" y="65.19999999999999"  width="9.299999999999999" height="9.299999999999999"></rect><rect shape-rendering="optimizeSpeed" fill="#000" x="19.2" y="65.19999999999999"  width="9.299999999999999" height="9.299999999999999"></rect><rect shape-rendering="optimizeSpeed" fill="#000" x="28.4" y="65.19999999999999"  width="9.299999999999999" height="9.299999999999999"></rect><rect shape-rendering="optimizeSpeed" fill="#000" x="37.599999999999994" y="65.19999999999999"  width="9.299999999999999" height="9.299999999999999"></rect><rect shape-rendering="optimizeSpeed" fill="#000" x="46.8" y="65.19999999999999"  width="9.299999999999999" height="9.299999999999999"></rect><rect shape-rendering="optimizeSpeed" fill="#000" x="56" y="65.19999999999999"  width="9.299999999999999" height="9.299999999999999"></rect><rect shape-rendering="optimizeSpeed" fill="#000" x="65.19999999999999" y="65.19999999999999"  width="9.299999999999999" height="9.299999999999999"></rect><rect shape-rendering="optimizeSpeed" fill="#000" x="83.6" y="65.19999999999999"  width="9.299999999999999" height="9.299999999999999"></rect><rect shape-rendering="optimizeSpeed" fill="#000" x="102" y="65.19999999999999"  width="9.299999999999999" height="9.299999999999999"></rect><rect shape-rendering="optimizeSpeed" fill="#000" x="120.39999999999999" y="65.19999999999999"  width="9.299999999999999" height="9.299999999999999"></rect><rect shape-rendering="optimizeSpeed" fill="#000" x="138.79999999999998" y="65.19999999999999"  width="9.299999999999999" height="9.299999999999999"></rect><rect shape-rendering="optimizeSpeed" fill="#000" x="157.2" y="65.19999999999999"  width="9.299999999999999" height="9.299999999999999"></rect><rect shape-rendering="optimizeSpeed" fill="#000" x="175.6" y="65.19999999999999"  width="9.299999999999999" height="9.299999999999999"></rect><rect shape-rendering="optimizeSpeed" fill="#000" x="184.79999999999998" y="65.19999999999999"  width="9.299999999999999" height="9.299999999999999"></rect><rect shape-rendering="optimizeSpeed" fill="#000" x="194" y="65.19999999999999"  width="9.299999999999999" height="9.299999999999999"></rect><rect shape-rendering="optimizeSpeed" fill="#000" x="203.2" y="65.19999999999999"  width="9.299999999999999" height="9.299999999999999"></rect><rect shape-rendering="optimizeSpeed" fill="#000" x="212.39999999999998" y="65.19999999999999"  width="9.299999999999999" height="9.299999999999999"></rect><rect shape-rendering="optimizeSpeed" fill="#000" x="221.6" y="65.19999999999999"  width="9.299999999999999" height="9.299999999999999"></rect><rect shape-rendering="optimizeSpeed" fill="#000" x="230.79999999999998" y="65.19999999999999"  width="9.299999999999999" height="9.299999999999999"></rect><rect shape-rendering="optimizeSpeed" fill="#000" x="92.8" y="74.39999999999999"  width="9.299999999999999" height="9.299999999999999"></rect><rect shape-rendering="optimizeSpeed" fill="#000" x="111.19999999999999" y="74.39999999999999"  width="9.299999999999999" height="9.299999999999999"></rect><rect shape-rendering="optimizeSpeed" fill="#000" x="10" y="83.6"  width="9.299999999999999" height="9.299999999999999"></rect><rect shape-rendering="optimizeSpeed" fill="#000" x="19.2" y="83.6"  width="9.299999999999999" height="9.299999999999999"></rect><rect shape-rendering="optimizeSpeed" fill="#000" x="28.4" y="83.6"  width="9.299999999999999" height="9.299999999999999"></rect><rect shape-rendering="optimizeSpeed" fill="#000" x="37.599999999999994" y="83.6"  width="9.299999999999999" height="9.299999999999999"></rect><rect shape-rendering="optimizeSpeed" fill="#000" x="65.19999999999999" y="83.6"  width="9.299999999999999" height="9.299999999999999"></rect><rect shape-rendering="optimizeSpeed" fill="#000" x="83.6" y="83.6"  width="9.299999999999999" height="9.299999999999999"></rect><rect shape-rendering="optimizeSpeed" fill="#000" x="157.2" y="83.6"  width="9.299999999999999" height="9.299999999999999"></rect><rect shape-rendering="optimizeSpeed" fill="#000" x="166.39999999999998" y="83.6"  width="9.299999999999999" height="9.299999999999999"></rect><rect shape-rendering="optimizeSpeed" fill="#000" x="194" y="83.6"  width="9.299999999999999" height="9.299999999999999"></rect><rect shape-rendering="optimizeSpeed" fill="#000" x="203.2" y="83.6"  width="9.299999999999999" height="9.299999999999999"></rect><rect shape-rendering="optimizeSpeed" fill="#000" x="212.39999999999998" y="83.6"  width="9.299999999999999" height="9.299999999999999"></rect><rect shape-rendering="optimizeSpeed" fill="#000" x="230.79999999999998" y="83.6"  width="9.299999999999999" height="9.299999999999999"></rect><rect shape-rendering="optimizeSpeed" fill="#000" x="28.4" y="92.8"  width="9.299999999999999" height="9.299999999999999"></rect><rect shape-rendering="optimizeSpeed" fill="#000" x="37.599999999999994" y="92.8"  width="9.299999999999999" height="9.299999999999999"></rect><rect shape-rendering="optimizeSpeed" fill="#000" x="74.39999999999999" y="92.8"  width="9.299999999999999" height="9.299999999999999"></rect><rect shape-rendering="optimizeSpeed" fill="#000" x="83.6" y="92.8"  width="9.299999999999999" height="9.299999999999999"></rect><rect shape-rendering="optimizeSpeed" fill="#000" x="92.8" y="92.8"  width="9.299999999999999" height="9.299999999999999"></rect><rect shape-rendering="optimizeSpeed" fill="#000" x="138.79999999999998" y="92.8"  width="9.299999999999999" height="9.299999999999999"></rect><rect shape-rendering="optimizeSpeed" fill="#000" x="157.2" y="92.8"  width="9.299999999999999" height="9.299999999999999"></rect><rect shape-rendering="optimizeSpeed" fill="#000" x="184.79999999999998" y="92.8"  width="9.299999999999999" height="9.299999999999999"></rect><rect shape-rendering="optimizeSpeed" fill="#000" x="221.6" y="92.8"  width="9.299999999999999" height="9.299999999999999"></rect><rect shape-rendering="optimizeSpeed" fill="#000" x="10" y="102"  width="9.299999999999999" height="9.299999999999999"></rect><rect shape-rendering="optimizeSpeed" fill="#000" x="28.4" y="102"  width="9.299999999999999" height="9.299999999999999"></rect><rect shape-rendering="optimizeSpeed" fill="#000" x="65.19999999999999" y="102"  width="9.299999999999999" height="9.299999999999999"></rect><rect shape-rendering="optimizeSpeed" fill="#000" x="83.6" y="102"  width="9.299999999999999" height="9.299999999999999"></rect><rect shape-rendering="optimizeSpeed" fill="#000" x="138.79999999999998" y="102"  width="9.299999999999999" height="9.299999999999999"></rect><rect shape-rendering="optimizeSpeed" fill="#000" x="157.2" y="102"  width="9.299999999999999" height="9.299999999999999"></rect><rect shape-rendering="optimizeSpeed" fill="#000" x="194" y="102"  width="9.299999999999999" height="9.299999999999999"></rect><rect shape-rendering="optimizeSpeed" fill="#000" x="10" y="111.19999999999999"  width="9.299999999999999" height="9.299999999999999"></rect><rect shape-rendering="optimizeSpeed" fill="#000" x="19.2" y="111.19999999999999"  width="9.299999999999999" height="9.299999999999999"></rect><rect shape-rendering="optimizeSpeed" fill="#000" x="28.4" y="111.19999999999999"  width="9.299999999999999" height="9.299999999999999"></rect><rect shape-rendering="optimizeSpeed" fill="#000" x="46.8" y="111.19999999999999"  width="9.299999999999999" height="9.299999999999999"></rect><rect shape-rendering="optimizeSpeed" fill="#000" x="56" y="111.19999999999999"  width="9.299999999999999" height="9.299999999999999"></rect><rect shape-rendering="optimizeSpeed" fill="#000" x="74.39999999999999" y="111.19999999999999"  width="9.299999999999999" height="9.299999999999999"></rect><rect shape-rendering="optimizeSpeed" fill="#000" x="83.6" y="111.19999999999999"  width="9.299999999999999" height="9.299999999999999"></rect><rect shape-rendering="optimizeSpeed" fill="#000" x="111.19999999999999" y="111.19999999999999"  width="9.299999999999999" height="9.299999999999999"></rect><rect shape-rendering="optimizeSpeed" fill="#000" x="120.39999999999999" y="111.19999999999999"  width="9.299999999999999" height="9.299999999999999"></rect><rect shape-rendering="optimizeSpeed" fill="#000" x="129.6" y="111.19999999999999"  width="9.299999999999999" height="9.299999999999999"></rect><rect shape-rendering="optimizeSpeed" fill="#000" x="148" y="111.19999999999999"  width="9.299999999999999" height="9.299999999999999"></rect><rect shape-rendering="optimizeSpeed" fill="#000" x="157.2" y="111.19999999999999"  width="9.299999999999999" height="9.299999999999999"></rect><rect shape-rendering="optimizeSpeed" fill="#000" x="166.39999999999998" y="111.19999999999999"  width="9.299999999999999" height="9.299999999999999"></rect><rect shape-rendering="optimizeSpeed" fill="#000" x="175.6" y="111.19999999999999"  width="9.299999999999999" height="9.299999999999999"></rect><rect shape-rendering="optimizeSpeed" fill="#000" x="194" y="111.19999999999999"  width="9.299999999999999" height="9.299999999999999"></rect><rect shape-rendering="optimizeSpeed" fill="#000" x="203.2" y="111.19999999999999"  width="9.299999999999999" height="9.299999999999999"></rect><rect shape-rendering="optimizeSpeed" fill="#000" x="212.39999999999998" y="111.19999999999999"  width="9.299999999999999" height="9.299999999999999"></rect><rect shape-rendering="optimizeSpeed" fill="#000" x="19.2" y="120.39999999999999"  width="9.299999999999999" height="9.299999999999999"></rect><rect shape-rendering="optimizeSpeed" fill="#000" x="37.599999999999994" y="120.39999999999999"  width="9.299999999999999" height="9.299999999999999"></rect><rect shape-rendering="optimizeSpeed" fill="#000" x="56" y="120.39999999999999"  width="9.299999999999999" height="9.299999999999999"></rect><rect shape-rendering="optimizeSpeed" fill="#000" x="65.19999999999999" y="120.39999999999999"  width="9.299999999999999" height="9.299999999999999"></rect><rect shape-rendering="optimizeSpeed" fill="#000" x="92.8" y="120.39999999999999"  width="9.299999999999999" height="9.299999999999999"></rect><rect shape-rendering="optimizeSpeed" fill="#000" x="111.19999999999999" y="120.39999999999999"  width="9.299999999999999" height="9.299999999999999"></rect><rect shape-rendering="optimizeSpeed" fill="#000" x="129.6" y="120.39999999999999"  width="9.299999999999999" height="9.299999999999999"></rect><rect shape-rendering="optimizeSpeed" fill="#000" x="148" y="120.39999999999999"  width="9.299999999999999" height="9.299999999999999"></rect><rect shape-rendering="optimizeSpeed" fill="#000" x="166.39999999999998" y="120.39999999999999"  width="9.299999999999999" height="9.299999999999999"></rect><rect shape-rendering="optimizeSpeed" fill="#000" x="175.6" y="120.39999999999999"  width="9.299999999999999" height="9.299999999999999"></rect><rect shape-rendering="optimizeSpeed" fill="#000" x="194" y="120.39999999999999"  width="9.299999999999999" height="9.299999999999999"></rect><rect shape-rendering="optimizeSpeed" fill="#000" x="212.39999999999998" y="120.39999999999999"  width="9.299999999999999" height="9.299999999999999"></rect><rect shape-rendering="optimizeSpeed" fill="#000" x="221.6" y="120.39999999999999"  width="9.299999999999999" height="9.299999999999999"></rect><rect shape-rendering="optimizeSpeed" fill="#000" x="230.79999999999998" y="120.39999999999999"  width="9.299999999999999" height="9.299999999999999"></rect><rect shape-rendering="optimizeSpeed" fill="#000" x="28.4" y="129.6"  width="9.299999999999999" height="9.299999999999999"></rect><rect shape-rendering="optimizeSpeed" fill="#000" x="46.8" y="129.6"  width="9.299999999999999" height="9.299999999999999"></rect><rect shape-rendering="optimizeSpeed" fill="#000" x="56" y="129.6"  width="9.299999999999999" height="9.299999999999999"></rect><rect shape-rendering="optimizeSpeed" fill="#000" x="102" y="129.6"  width="9.299999999999999" height="9.299999999999999"></rect><rect shape-rendering="optimizeSpeed" fill="#000" x="111.19999999999999" y="129.6"  width="9.299999999999999" height="9.299999999999999"></rect><rect shape-rendering="optimizeSpeed" fill="#000" x="148" y="129.6"  width="9.299999999999999" height="9.299999999999999"></rect><rect shape-rendering="optimizeSpeed" fill="#000" x="157.2" y="129.6"  width="9.299999999999999" height="9.299999999999999"></rect><rect shape-rendering="optimizeSpeed" fill="#000" x="166.39999999999998" y="129.6"  width="9.299999999999999" height="9.299999999999999"></rect><rect shape-rendering="optimizeSpeed" fill="#000" x="175.6" y="129.6"  width="9.299999999999999" height="9.299999999999999"></rect><rect shape-rendering="optimizeSpeed" fill="#000" x="184.79999999999998" y="129.6"  width="9.299999999999999" height="9.299999999999999"></rect><rect shape-rendering="optimizeSpeed" fill="#000" x="194" y="129.6"  width="9.299999999999999" height="9.299999999999999"></rect><rect shape-rendering="optimizeSpeed" fill="#000" x="230.79999999999998" y="129.6"  width="9.299999999999999" height="9.299999999999999"></rect><rect shape-rendering="optimizeSpeed" fill="#000" x="19.2" y="138.79999999999998"  width="9.299999999999999" height="9.299999999999999"></rect><rect shape-rendering="optimizeSpeed" fill="#000" x="28.4" y="138.79999999999998"  width="9.299999999999999" height="9.299999999999999"></rect><rect shape-rendering="optimizeSpeed" fill="#000" x="46.8" y="138.79999999999998"  width="9.299999999999999" height="9.299999999999999"></rect><rect shape-rendering="optimizeSpeed" fill="#000" x="65.19999999999999" y="138.79999999999998"  width="9.299999999999999" height="9.299999999999999"></rect><rect shape-rendering="optimizeSpeed" fill="#000" x="74.39999999999999" y="138.79999999999998"  width="9.299999999999999" height="9.299999999999999"></rect><rect shape-rendering="optimizeSpeed" fill="#000" x="92.8" y="138.79999999999998"  width="9.299999999999999" height="9.299999999999999"></rect><rect shape-rendering="optimizeSpeed" fill="#000" x="102" y="138.79999999999998"  width="9.299999999999999" height="9.299999999999999"></rect><rect shape-rendering="optimizeSpeed" fill="#000" x="120.39999999999999" y="138.79999999999998"  width="9.299999999999999" height="9.299999999999999"></rect><rect shape-rendering="optimizeSpeed" fill="#000" x="129.6" y="138.79999999999998"  width="9.299999999999999" height="9.299999999999999"></rect><rect shape-rendering="optimizeSpeed" fill="#000" x="166.39999999999998" y="138.79999999999998"  width="9.299999999999999" height="9.299999999999999"></rect><rect shape-rendering="optimizeSpeed" fill="#000" x="175.6" y="138.79999999999998"  width="9.299999999999999" height="9.299999999999999"></rect><rect shape-rendering="optimizeSpeed" fill="#000" x="212.39999999999998" y="138.79999999999998"  width="9.299999999999999" height="9.299999999999999"></rect><rect shape-rendering="optimizeSpeed" fill="#000" x="221.6" y="138.79999999999998"  width="9.299999999999999" height="9.299999999999999"></rect><rect shape-rendering="optimizeSpeed" fill="#000" x="10" y="148"  width="9.299999999999999" height="9.299999999999999"></rect><rect shape-rendering="optimizeSpeed" fill="#000" x="28.4" y="148"  width="9.299999999999999" height="9.299999999999999"></rect><rect shape-rendering="optimizeSpeed" fill="#000" x="37.599999999999994" y="148"  width="9.299999999999999" height="9.299999999999999"></rect><rect shape-rendering="optimizeSpeed" fill="#000" x="46.8" y="148"  width="9.299999999999999" height="9.299999999999999"></rect><rect shape-rendering="optimizeSpeed" fill="#000" x="56" y="148"  width="9.299999999999999" height="9.299999999999999"></rect><rect shape-rendering="optimizeSpeed" fill="#000" x="74.39999999999999" y="148"  width="9.299999999999999" height="9.299999999999999"></rect><rect shape-rendering="optimizeSpeed" fill="#000" x="83.6" y="148"  width="9.299999999999999" height="9.299999999999999"></rect><rect shape-rendering="optimizeSpeed" fill="#000" x="92.8" y="148"  width="9.299999999999999" height="9.299999999999999"></rect><rect shape-rendering="optimizeSpeed" fill="#000" x="120.39999999999999" y="148"  width="9.299999999999999" height="9.299999999999999"></rect><rect shape-rendering="optimizeSpeed" fill="#000" x="157.2" y="148"  width="9.299999999999999" height="9.299999999999999"></rect><rect shape-rendering="optimizeSpeed" fill="#000" x="166.39999999999998" y="148"  width="9.299999999999999" height="9.299999999999999"></rect><rect shape-rendering="optimizeSpeed" fill="#000" x="184.79999999999998" y="148"  width="9.299999999999999" height="9.299999999999999"></rect><rect shape-rendering="optimizeSpeed" fill="#000" x="203.2" y="148"  width="9.299999999999999" height="9.299999999999999"></rect><rect shape-rendering="optimizeSpeed" fill="#000" x="230.79999999999998" y="148"  width="9.299999999999999" height="9.299999999999999"></rect><rect shape-rendering="optimizeSpeed" fill="#000" x="28.4" y="157.2"  width="9.299999999999999" height="9.299999999999999"></rect><rect shape-rendering="optimizeSpeed" fill="#000" x="37.599999999999994" y="157.2"  width="9.299999999999999" height="9.299999999999999"></rect><rect shape-rendering="optimizeSpeed" fill="#000" x="56" y="157.2"  width="9.299999999999999" height="9.299999999999999"></rect><rect shape-rendering="optimizeSpeed" fill="#000" x="65.19999999999999" y="157.2"  width="9.299999999999999" height="9.299999999999999"></rect><rect shape-rendering="optimizeSpeed" fill="#000" x="74.39999999999999" y="157.2"  width="9.299999999999999" height="9.299999999999999"></rect><rect shape-rendering="optimizeSpeed" fill="#000" x="83.6" y="157.2"  width="9.299999999999999" height="9.299999999999999"></rect><rect shape-rendering="optimizeSpeed" fill="#000" x="111.19999999999999" y="157.2"  width="9.299999999999999" height="9.299999999999999"></rect><rect shape-rendering="optimizeSpeed" fill="#000" x="129.6" y="157.2"  width="9.299999999999999" height="9.299999999999999"></rect><rect shape-rendering="optimizeSpeed" fill="#000" x="138.79999999999998" y="157.2"  width="9.299999999999999" height="9.299999999999999"></rect><rect shape-rendering="optimizeSpeed" fill="#000" x="148" y="157.2"  width="9.299999999999999" height="9.299999999999999"></rect><rect shape-rendering="optimizeSpeed" fill="#000" x="157.2" y="157.2"  width="9.299999999999999" height="9.299999999999999"></rect><rect shape-rendering="optimizeSpeed" fill="#000" x="166.39999999999998" y="157.2"  width="9.299999999999999" height="9.299999999999999"></rect><rect shape-rendering="optimizeSpeed" fill="#000" x="175.6" y="157.2"  width="9.299999999999999" height="9.299999999999999"></rect><rect shape-rendering="optimizeSpeed" fill="#000" x="184.79999999999998" y="157.2"  width="9.299999999999999" height="9.299999999999999"></rect><rect shape-rendering="optimizeSpeed" fill="#000" x="194" y="157.2"  width="9.299999999999999" height="9.299999999999999"></rect><rect shape-rendering="optimizeSpeed" fill="#000" x="203.2" y="157.2"  width="9.299999999999999" height="9.299999999999999"></rect><rect shape-rendering="optimizeSpeed" fill="#000" x="212.39999999999998" y="157.2"  width="9.299999999999999" height="9.299999999999999"></rect><rect shape-rendering="optimizeSpeed" fill="#000" x="221.6" y="157.2"  width="9.299999999999999" height="9.299999999999999"></rect><rect shape-rendering="optimizeSpeed" fill="#000" x="230.79999999999998" y="157.2"  width="9.299999999999999" height="9.299999999999999"></rect><rect shape-rendering="optimizeSpeed" fill="#000" x="83.6" y="166.39999999999998"  width="9.299999999999999" height="9.299999999999999"></rect><rect shape-rendering="optimizeSpeed" fill="#000" x="92.8" y="166.39999999999998"  width="9.299999999999999" height="9.299999999999999"></rect><rect shape-rendering="optimizeSpeed" fill="#000" x="120.39999999999999" y="166.39999999999998"  width="9.299999999999999" height="9.299999999999999"></rect><rect shape-rendering="optimizeSpeed" fill="#000" x="129.6" y="166.39999999999998"  width="9.299999999999999" height="9.299999999999999"></rect><rect shape-rendering="optimizeSpeed" fill="#000" x="138.79999999999998" y="166.39999999999998"  width="9.299999999999999" height="9.299999999999999"></rect><rect shape-rendering="optimizeSpeed" fill="#000" x="157.2" y="166.39999999999998"  width="9.299999999999999" height="9.299999999999999"></rect><rect shape-rendering="optimizeSpeed" fill="#000" x="194" y="166.39999999999998"  width="9.299999999999999" height="9.299999999999999"></rect><rect shape-rendering="optimizeSpeed" fill="#000" x="230.79999999999998" y="166.39999999999998"  width="9.299999999999999" height="9.299999999999999"></rect><rect shape-rendering="optimizeSpeed" fill="#000" x="10" y="175.6"  width="9.299999999999999" height="9.299999999999999"></rect><rect shape-rendering="optimizeSpeed" fill="#000" x="19.2" y="175.6"  width="9.299999999999999" height="9.299999999999999"></rect><rect shape-rendering="optimizeSpeed" fill="#000" x="28.4" y="175.6"  width="9.299999999999999" height="9.299999999999999"></rect><rect shape-rendering="optimizeSpeed" fill="#000" x="37.599999999999994" y="175.6"  width="9.299999999999999" height="9.299999999999999"></rect><rect shape-rendering="optimizeSpeed" fill="#000" x="46.8" y="175.6"  width="9.299999999999999" height="9.299999999999999"></rect><rect shape-rendering="optimizeSpeed" fill="#000" x="56" y="175.6"  width="9.299999999999999" height="9.299999999999999"></rect><rect shape-rendering="optimizeSpeed" fill="#000" x="65.19999999999999" y="175.6"  width="9.299999999999999" height="9.299999999999999"></rect><rect shape-rendering="optimizeSpeed" fill="#000" x="111.19999999999999" y="175.6"  width="9.299999999999999" height="9.299999999999999"></rect><rect shape-rendering="optimizeSpeed" fill="#000" x="120.39999999999999" y="175.6"  width="9.299999999999999" height="9.299999999999999"></rect><rect shape-rendering="optimizeSpeed" fill="#000" x="157.2" y="175.6"  width="9.299999999999999" height="9.299999999999999"></rect><rect shape-rendering="optimizeSpeed" fill="#000" x="175.6" y="175.6"  width="9.299999999999999" height="9.299999999999999"></rect><rect shape-rendering="optimizeSpeed" fill="#000" x="194" y="175.6"  width="9.299999999999999" height="9.299999999999999"></rect><rect shape-rendering="optimizeSpeed" fill="#000" x="203.2" y="175.6"  width="9.299999999999999" height="9.299999999999999"></rect><rect shape-rendering="optimizeSpeed" fill="#000" x="212.39999999999998" y="175.6"  width="9.299999999999999" height="9.299999999999999"></rect><rect shape-rendering="optimizeSpeed" fill="#000" x="221.6" y="175.6"  width="9.299999999999999" height="9.299999999999999"></rect><rect shape-rendering="optimizeSpeed" fill="#000" x="230.79999999999998" y="175.6"  width="9.299999999999999" height="9.299999999999999"></rect><rect shape-rendering="optimizeSpeed" fill="#000" x="10" y="184.79999999999998"  width="9.299999999999999" height="9.299999999999999"></rect><rect shape-rendering="optimizeSpeed" fill="#000" x="65.19999999999999" y="184.79999999999998"  width="9.299999999999999" height="9.299999999999999"></rect><rect shape-rendering="optimizeSpeed" fill="#000" x="102" y="184.79999999999998"  width="9.299999999999999" height="9.299999999999999"></rect><rect shape-rendering="optimizeSpeed" fill="#000" x="120.39999999999999" y="184.79999999999998"  width="9.299999999999999" height="9.299999999999999"></rect><rect shape-rendering="optimizeSpeed" fill="#000" x="138.79999999999998" y="184.79999999999998"  width="9.299999999999999" height="9.299999999999999"></rect><rect shape-rendering="optimizeSpeed" fill="#000" x="148" y="184.79999999999998"  width="9.299999999999999" height="9.299999999999999"></rect><rect shape-rendering="optimizeSpeed" fill="#000" x="157.2" y="184.79999999999998"  width="9.299999999999999" height="9.299999999999999"></rect><rect shape-rendering="optimizeSpeed" fill="#000" x="194" y="184.79999999999998"  width="9.299999999999999" height="9.299999999999999"></rect><rect shape-rendering="optimizeSpeed" fill="#000" x="221.6" y="184.79999999999998"  width="9.299999999999999" height="9.299999999999999"></rect><rect shape-rendering="optimizeSpeed" fill="#000" x="230.79999999999998" y="184.79999999999998"  width="9.299999999999999" height="9.299999999999999"></rect><rect shape-rendering="optimizeSpeed" fill="#000" x="10" y="194"  width="9.299999999999999" height="9.299999999999999"></rect><rect shape-rendering="optimizeSpeed" fill="#000" x="28.4" y="194"  width="9.299999999999999" height="9.299999999999999"></rect><rect shape-rendering="optimizeSpeed" fill="#000" x="37.599999999999994" y="194"  width="9.299999999999999" height="9.299999999999999"></rect><rect shape-rendering="optimizeSpeed" fill="#000" x="46.8" y="194"  width="9.299999999999999" height="9.299999999999999"></rect><rect shape-rendering="optimizeSpeed" fill="#000" x="65.19999999999999" y="194"  width="9.299999999999999" height="9.299999999999999"></rect><rect shape-rendering="optimizeSpeed" fill="#000" x="92.8" y="194"  width="9.299999999999999" height="9.299999999999999"></rect><rect shape-rendering="optimizeSpeed" fill="#000" x="111.19999999999999" y="194"  width="9.299999999999999" height="9.299999999999999"></rect><rect shape-rendering="optimizeSpeed" fill="#000" x="120.39999999999999" y="194"  width="9.299999999999999" height="9.299999999999999"></rect><rect shape-rendering="optimizeSpeed" fill="#000" x="129.6" y="194"  width="9.299999999999999" height="9.299999999999999"></rect><rect shape-rendering="optimizeSpeed" fill="#000" x="157.2" y="194"  width="9.299999999999999" height="9.299999999999999"></rect><rect shape-rendering="optimizeSpeed" fill="#000" x="166.39999999999998" y="194"  width="9.299999999999999" height="9.299999999999999"></rect><rect shape-rendering="optimizeSpeed" fill="#000" x="175.6" y="194"  width="9.299999999999999" height="9.299999999999999"></rect><rect shape-rendering="optimizeSpeed" fill="#000" x="184.79999999999998" y="194"  width="9.299999999999999" height="9.299999999999999"></rect><rect shape-rendering="optimizeSpeed" fill="#000" x="194" y="194"  width="9.299999999999999" height="9.299999999999999"></rect><rect shape-rendering="optimizeSpeed" fill="#000" x="221.6" y="194"  width="9.299999999999999" height="9.299999999999999"></rect><rect shape-rendering="optimizeSpeed" fill="#000" x="10" y="203.2"  width="9.299999999999999" height="9.299999999999999"></rect><rect shape-rendering="optimizeSpeed" fill="#000" x="28.4" y="203.2"  width="9.299999999999999" height="9.299999999999999"></rect><rect shape-rendering="optimizeSpeed" fill="#000" x="37.599999999999994" y="203.2"  width="9.299999999999999" height="9.299999999999999"></rect><rect shape-rendering="optimizeSpeed" fill="#000" x="46.8" y="203.2"  width="9.299999999999999" height="9.299999999999999"></rect><rect shape-rendering="optimizeSpeed" fill="#000" x="65.19999999999999" y="203.2"  width="9.299999999999999" height="9.299999999999999"></rect><rect shape-rendering="optimizeSpeed" fill="#000" x="83.6" y="203.2"  width="9.299999999999999" height="9.299999999999999"></rect><rect shape-rendering="optimizeSpeed" fill="#000" x="92.8" y="203.2"  width="9.299999999999999" height="9.299999999999999"></rect><rect shape-rendering="optimizeSpeed" fill="#000" x="102" y="203.2"  width="9.299999999999999" height="9.299999999999999"></rect><rect shape-rendering="optimizeSpeed" fill="#000" x="120.39999999999999" y="203.2"  width="9.299999999999999" height="9.299999999999999"></rect><rect shape-rendering="optimizeSpeed" fill="#000" x="129.6" y="203.2"  width="9.299999999999999" height="9.299999999999999"></rect><rect shape-rendering="optimizeSpeed" fill="#000" x="148" y="203.2"  width="9.299999999999999" height="9.299999999999999"></rect><rect shape-rendering="optimizeSpeed" fill="#000" x="175.6" y="203.2"  width="9.299999999999999" height="9.299999999999999"></rect><rect shape-rendering="optimizeSpeed" fill="#000" x="194" y="203.2"  width="9.299999999999999" height="9.299999999999999"></rect><rect shape-rendering="optimizeSpeed" fill="#000" x="212.39999999999998" y="203.2"  width="9.299999999999999" height="9.299999999999999"></rect><rect shape-rendering="optimizeSpeed" fill="#000" x="221.6" y="203.2"  width="9.299999999999999" height="9.299999999999999"></rect><rect shape-rendering="optimizeSpeed" fill="#000" x="230.79999999999998" y="203.2"  width="9.299999999999999" height="9.299999999999999"></rect><rect shape-rendering="optimizeSpeed" fill="#000" x="10" y="212.39999999999998"  width="9.299999999999999" height="9.299999999999999"></rect><rect shape-rendering="optimizeSpeed" fill="#000" x="28.4" y="212.39999999999998"  width="9.299999999999999" height="9.299999999999999"></rect><rect shape-rendering="optimizeSpeed" fill="#000" x="37.599999999999994" y="212.39999999999998"  width="9.299999999999999" height="9.299999999999999"></rect><rect shape-rendering="optimizeSpeed" fill="#000" x="46.8" y="212.39999999999998"  width="9.299999999999999" height="9.299999999999999"></rect><rect shape-rendering="optimizeSpeed" fill="#000" x="65.19999999999999" y="212.39999999999998"  width="9.299999999999999" height="9.299999999999999"></rect><rect shape-rendering="optimizeSpeed" fill="#000" x="83.6" y="212.39999999999998"  width="9.299999999999999" height="9.299999999999999"></rect><rect shape-rendering="optimizeSpeed" fill="#000" x="111.19999999999999" y="212.39999999999998"  width="9.299999999999999" height="9.299999999999999"></rect><rect shape-rendering="optimizeSpeed" fill="#000" x="120.39999999999999" y="212.39999999999998"  width="9.299999999999999" height="9.299999999999999"></rect><rect shape-rendering="optimizeSpeed" fill="#000" x="129.6" y="212.39999999999998"  width="9.299999999999999" height="9.299999999999999"></rect><rect shape-rendering="optimizeSpeed" fill="#000" x="148" y="212.39999999999998"  width="9.299999999999999" height="9.299999999999999"></rect><rect shape-rendering="optimizeSpeed" fill="#000" x="157.2" y="212.39999999999998"  width="9.299999999999999" height="9.299999999999999"></rect><rect shape-rendering="optimizeSpeed" fill="#000" x="166.39999999999998" y="212.39999999999998"  width="9.299999999999999" height="9.299999999999999"></rect><rect shape-rendering="optimizeSpeed" fill="#000" x="175.6" y="212.39999999999998"  width="9.299999999999999" height="9.299999999999999"></rect><rect shape-rendering="optimizeSpeed" fill="#000" x="184.79999999999998" y="212.39999999999998"  width="9.299999999999999" height="9.299999999999999"></rect><rect shape-rendering="optimizeSpeed" fill="#000" x="194" y="212.39999999999998"  width="9.299999999999999" height="9.299999999999999"></rect><rect shape-rendering="optimizeSpeed" fill="#000" x="203.2" y="212.39999999999998"  width="9.299999999999999" height="9.299999999999999"></rect><rect shape-rendering="optimizeSpeed" fill="#000" x="212.39999999999998" y="212.39999999999998"  width="9.299999999999999" height="9.299999999999999"></rect><rect shape-rendering="optimizeSpeed" fill="#000" x="221.6" y="212.39999999999998"  width="9.299999999999999" height="9.299999999999999"></rect><rect shape-rendering="optimizeSpeed" fill="#000" x="10" y="221.6"  width="9.299999999999999" height="9.299999999999999"></rect><rect shape-rendering="optimizeSpeed" fill="#000" x="65.19999999999999" y="221.6"  width="9.299999999999999" height="9.299999999999999"></rect><rect shape-rendering="optimizeSpeed" fill="#000" x="83.6" y="221.6"  width="9.299999999999999" height="9.299999999999999"></rect><rect shape-rendering="optimizeSpeed" fill="#000" x="166.39999999999998" y="221.6"  width="9.299999999999999" height="9.299999999999999"></rect><rect shape-rendering="optimizeSpeed" fill="#000" x="175.6" y="221.6"  width="9.299999999999999" height="9.299999999999999"></rect><rect shape-rendering="optimizeSpeed" fill="#000" x="194" y="221.6"  width="9.299999999999999" height="9.299999999999999"></rect><rect shape-rendering="optimizeSpeed" fill="#000" x="212.39999999999998" y="221.6"  width="9.299999999999999" height="9.299999999999999"></rect><rect shape-rendering="optimizeSpeed" fill="#000" x="10" y="230.79999999999998"  width="9.299999999999999" height="9.299999999999999"></rect><rect shape-rendering="optimizeSpeed" fill="#000" x="19.2" y="230.79999999999998"  width="9.299999999999999" height="9.299999999999999"></rect><rect shape-rendering="optimizeSpeed" fill="#000" x="28.4" y="230.79999999999998"  width="9.299999999999999" height="9.299999999999999"></rect><rect shape-rendering="optimizeSpeed" fill="#000" x="37.599999999999994" y="230.79999999999998"  width="9.299999999999999" height="9.299999999999999"></rect><rect shape-rendering="optimizeSpeed" fill="#000" x="46.8" y="230.79999999999998"  width="9.299999999999999" height="9.299999999999999"></rect><rect shape-rendering="optimizeSpeed" fill="#000" x="56" y="230.79999999999998"  width="9.299999999999999" height="9.299999999999999"></rect><rect shape-rendering="optimizeSpeed" fill="#000" x="65.19999999999999" y="230.79999999999998"  width="9.299999999999999" height="9.299999999999999"></rect><rect shape-rendering="optimizeSpeed" fill="#000" x="83.6" y="230.79999999999998"  width="9.299999999999999" height="9.299999999999999"></rect><rect shape-rendering="optimizeSpeed" fill="#000" x="92.8" y="230.79999999999998"  width="9.299999999999999" height="9.299999999999999"></rect><rect shape-rendering="optimizeSpeed" fill="#000" x="102" y="230.79999999999998"  width="9.299999999999999" height="9.299999999999999"></rect><rect shape-rendering="optimizeSpeed" fill="#000" x="120.39999999999999" y="230.79999999999998"  width="9.299999999999999" height="9.299999999999999"></rect><rect shape-rendering="optimizeSpeed" fill="#000" x="138.79999999999998" y="230.79999999999998"  width="9.299999999999999" height="9.299999999999999"></rect><rect shape-rendering="optimizeSpeed" fill="#000" x="184.79999999999998" y="230.79999999999998"  width="9.299999999999999" height="9.299999999999999"></rect><rect shape-rendering="optimizeSpeed" fill="#000" x="194" y="230.79999999999998"  width="9.299999999999999" height="9.299999999999999"></rect><rect shape-rendering="optimizeSpeed" fill="#000" x="203.2" y="230.79999999999998"  width="9.299999999999999" height="9.299999999999999"></rect><rect shape-rendering="optimizeSpeed" fill="#000" x="212.39999999999998" y="230.79999999999998"  width="9.299999999999999" height="9.299999999999999"></rect><rect shape-rendering="optimizeSpeed" fill="#000" x="221.6" y="230.79999999999998"  width="9.299999999999999" height="9.299999999999999"></rect><rect shape-rendering="optimizeSpeed" fill="#000" x="230.79999999999998" y="230.79999999999998"  width="9.299999999999999" height="9.299999999999999"></rect></svg>